<?xml version="1.0" encoding="UTF-8"?>
<!DOCTYPE svg PUBLIC "-//W3C//DTD SVG 1.1//EN" "http://www.w3.org/Graphics/SVG/1.1/DTD/svg11.dtd">
<!-- Creator: CorelDRAW X6 -->
<svg xmlns="http://www.w3.org/2000/svg" xml:space="preserve" width="588.662mm" height="227.276mm" version="1.1" style="shape-rendering:geometricPrecision; text-rendering:geometricPrecision; image-rendering:optimizeQuality; fill-rule:evenodd; clip-rule:evenodd"
viewBox="0 0 58866 22728"
 xmlns:xlink="http://www.w3.org/1999/xlink">
 <defs>
  <style type="text/css">
   <![CDATA[
    .fil0 {fill:none}
    .fil14 {fill:url(#id0)}
    .fil9 {fill:url(#id1)}
    .fil6 {fill:url(#id2)}
    .fil5 {fill:url(#id3)}
    .fil12 {fill:url(#id4)}
    .fil13 {fill:url(#id5)}
    .fil3 {fill:url(#id6)}
    .fil1 {fill:url(#id7)}
    .fil2 {fill:url(#id8);fill-rule:nonzero}
    .fil4 {fill:url(#id9);fill-rule:nonzero}
    .fil11 {fill:url(#id10);fill-rule:nonzero}
    .fil15 {fill:url(#id11);fill-rule:nonzero}
    .fil10 {fill:url(#id12);fill-rule:nonzero}
    .fil7 {fill:url(#id13);fill-rule:nonzero}
    .fil8 {fill:url(#id14);fill-rule:nonzero}
   ]]>
  </style>
  <linearGradient id="id0" gradientUnits="userSpaceOnUse" x1="37492.6" y1="12892.7" x2="37447.2" y2="8248.65">
   <stop offset="0" style="stop-color:#F2665D"/>
   <stop offset="1" style="stop-color:#F78D86"/>
  </linearGradient>
  <linearGradient id="id1" gradientUnits="userSpaceOnUse" xlink:href="#id0" x1="38532.8" y1="12919.1" x2="38455.4" y2="8222.22">
  </linearGradient>
  <linearGradient id="id2" gradientUnits="userSpaceOnUse" x1="23952.5" y1="8307.86" x2="24822.3" y2="12833.5">
   <stop offset="0" style="stop-color:#3495CF"/>
   <stop offset="1" style="stop-color:#5CBBF2"/>
  </linearGradient>
  <linearGradient id="id3" gradientUnits="userSpaceOnUse" xlink:href="#id2" x1="47370.3" y1="8307.83" x2="48240.3" y2="12833.5">
  </linearGradient>
  <linearGradient id="id4" gradientUnits="userSpaceOnUse" xlink:href="#id2" x1="26000.2" y1="12483.2" x2="24462" y2="8658.13">
  </linearGradient>
  <linearGradient id="id5" gradientUnits="userSpaceOnUse" xlink:href="#id2" x1="49418.2" y1="12483.2" x2="47879.9" y2="8658.13">
  </linearGradient>
  <radialGradient id="id6" gradientUnits="userSpaceOnUse" cx="8123.59" cy="7778.43" r="2427.61" fx="8123.59" fy="7778.43">
   <stop offset="0" style="stop-color:#F78D86"/>
   <stop offset="1" style="stop-color:#F2665D"/>
  </radialGradient>
  <radialGradient id="id7" gradientUnits="userSpaceOnUse" cx="12835" cy="13638.8" r="2911.57" fx="12835" fy="13638.8">
   <stop offset="0" style="stop-color:#5CBBF2"/>
   <stop offset="1" style="stop-color:#3495CF"/>
  </radialGradient>
  <radialGradient id="id8" gradientUnits="userSpaceOnUse" cx="15723.4" cy="8330.81" r="2567.57" fx="15723.4" fy="8330.81">
   <stop offset="0" style="stop-color:#5CE0E0"/>
   <stop offset="1" style="stop-color:#34C0BF"/>
  </radialGradient>
  <radialGradient id="id9" gradientUnits="userSpaceOnUse" cx="12170.1" cy="8442.62" r="585.22" fx="12170.1" fy="8442.62">
   <stop offset="0" style="stop-color:#FFC294"/>
   <stop offset="1" style="stop-color:#F89A50"/>
  </radialGradient>
  <radialGradient id="id10" gradientUnits="userSpaceOnUse" xlink:href="#id8" cx="52420.3" cy="10570.7" r="620.06" fx="52420.3" fy="10570.7">
  </radialGradient>
  <radialGradient id="id11" gradientUnits="userSpaceOnUse" xlink:href="#id8" cx="38545.2" cy="15406.3" r="5925.29" fx="38545.2" fy="15406.3">
  </radialGradient>
  <radialGradient id="id12" gradientUnits="userSpaceOnUse" xlink:href="#id9" cx="43765.9" cy="10570.7" r="620.06" fx="43765.9" fy="10570.7">
  </radialGradient>
  <radialGradient id="id13" gradientUnits="userSpaceOnUse" cx="28664.4" cy="10570.7" r="459.83" fx="28664.4" fy="10570.7">
   <stop offset="0" style="stop-color:#BCA8ED"/>
   <stop offset="1" style="stop-color:#826EB2"/>
  </radialGradient>
  <radialGradient id="id14" gradientUnits="userSpaceOnUse" cx="33193.5" cy="10570.7" r="447.05" fx="33193.5" fy="10570.7">
   <stop offset="0" style="stop-color:#E693C9"/>
   <stop offset="1" style="stop-color:#D558A9"/>
  </radialGradient>
 </defs>
 <g id="Camada_x0020_1">
  <metadata id="CorelCorpID_0Corel-Layer"/>
  <g id="_964902352">
   <polygon class="fil0" points="0,0 58866,0 58866,22728 0,22728 "/>
   <path class="fil1" d="M15903 12271c237,-245 1092,-1117 1342,-2050 251,-933 623,-2178 1040,-2012 334,133 69,3956 -2382,4062zm-1448 -127c447,-324 1055,-978 1413,-1602 358,-623 781,-1553 1235,-1377 328,128 -1118,3390 -2648,2979zm-1279 -437c290,-161 830,-450 1350,-1168 520,-718 855,-953 1007,-853 543,356 -1257,2643 -2357,2022zm-3683 1155c1418,1373 3515,1936 5460,1303 1671,-544 2851,-1743 3549,-3366 698,-1623 683,-4273 999,-4302 710,295 1539,5802 -2450,9277 -3989,3476 -9177,2598 -12190,-980 -915,-1087 -424,-2093 358,-2807 528,-482 1206,-845 1637,-1012 419,-164 787,-258 1147,-316 3840,-618 4454,2717 8514,1894 -2568,1878 -4951,955 -7025,309z"/>
   <path class="fil2" d="M15161 4865c-479,708 -2035,4557 -2040,4576 -546,2318 5869,-4535 4360,-3421 -3523,2600 -1842,-1863 -2320,-1155zm1171 755c244,128 330,417 194,646 -136,229 -445,310 -688,182 -244,-128 -330,-417 -194,-646 136,-229 445,-310 688,-182z"/>
   <path class="fil3" d="M9067 4847c461,718 1768,3462 1924,4620 156,1158 -6164,-4515 -4272,-3517 3457,2677 1888,-1821 2349,-1103zm-1190 729c-247,123 -341,410 -210,641 131,231 437,320 683,197 247,-123 341,-410 210,-641 -131,-231 -437,-320 -683,-197z"/>
   <path class="fil4" d="M11479 9803c393,1229 2139,-2924 2127,-4948 -1,-95 -81,-126 -105,-71 -1401,3185 -2229,662 -2514,70 -65,-135 -150,-139 -159,17 -49,843 646,4913 651,4932zm812 -4840c279,0 505,214 505,478 0,264 -226,478 -505,478 -279,0 -505,-214 -505,-478 0,-264 226,-478 505,-478z"/>
   <polygon class="fil5" points="48549,12878 47664,9627 46766,12878 45617,12878 47045,8263 48542,8263 49994,12878 "/>
   <polygon class="fil6" points="25131,12878 24246,9627 23348,12878 22199,12878 23627,8263 25124,8263 26576,12878 "/>
   <path class="fil7" d="M29388 11121l1294 77c-61,564 -270,996 -626,1297 -356,301 -795,452 -1315,452 -626,0 -1131,-208 -1515,-622 -385,-414 -578,-987 -578,-1716 0,-723 182,-1307 547,-1751 364,-444 873,-665 1526,-665 610,0 1080,168 1407,505 326,337 512,784 555,1340l-1322 71c0,-308 -59,-529 -176,-667 -118,-137 -257,-205 -416,-205 -444,0 -667,449 -667,1347 0,503 58,845 173,1025 116,181 279,271 488,271 373,0 581,-254 626,-761z"/>
   <path class="fil8" d="M33198 12948c-649,0 -1179,-216 -1588,-646 -409,-430 -614,-1006 -614,-1726 0,-689 196,-1258 587,-1708 391,-449 934,-674 1628,-674 642,0 1167,212 1572,635 405,423 607,988 607,1695 0,732 -204,1319 -612,1761 -408,442 -934,662 -1580,662zm-6 -1045c240,0 413,-105 518,-314 105,-209 158,-591 158,-1145 0,-804 -217,-1205 -649,-1205 -467,0 -700,458 -700,1375 0,859 225,1289 674,1289z"/>
   <polygon class="fil9" points="41003,8263 41003,12878 39688,12878 39688,9578 38829,12878 37930,12878 37044,9578 37044,12878 35986,12878 35986,8263 37832,8263 38501,10715 39140,8263 "/>
   <path class="fil10" d="M43243 11204l0 1675 -1439 0 0 -4616 1970 0c491,0 865,56 1121,170 255,113 458,285 608,518 150,232 225,492 225,781 0,441 -153,796 -459,1067 -306,271 -714,406 -1225,406l-800 0zm-21 -990l471 0c415,0 623,-156 623,-467 0,-293 -191,-439 -575,-439l-518 0 0 906z"/>
   <path class="fil11" d="M54472 12878l-1570 0 -679 -1765 -436 0 0 1765 -1419 0 0 -4616 2410 0c532,0 945,125 1239,374 294,249 441,578 441,986 0,266 -54,502 -163,706 -108,204 -328,384 -659,540l835 2010zm-2685 -2747l606 0c178,0 321,-37 429,-112 108,-75 163,-185 163,-330 0,-296 -181,-444 -544,-444l-653 0 0 886z"/>
   <polygon class="fil12" points="25124,8263 26576,12878 25131,12878 23886,8285 "/>
   <polygon class="fil13" points="48542,8263 49994,12878 48549,12878 47304,8285 "/>
   <polygon class="fil14" points="37044,12878 35986,12878 35986,8263 37832,8263 38954,12396 38829,12878 37930,12878 37044,9578 "/>
   <path class="fil15" d="M24870 14857l324 959 325 -965c17,-51 30,-86 38,-106 9,-20 23,-38 42,-54 20,-16 46,-24 80,-24 25,0 48,6 69,19 21,12 38,29 50,49 12,20 18,41 18,62 0,14 -2,30 -6,46 -4,16 -9,33 -14,49 -6,16 -12,32 -18,49l-346 934c-13,36 -25,70 -37,102 -12,32 -27,60 -43,85 -16,24 -38,44 -65,60 -27,16 -60,23 -99,23 -39,0 -72,-8 -99,-23 -27,-15 -49,-35 -65,-60 -16,-25 -31,-54 -43,-86 -12,-32 -25,-66 -37,-101l-340 -927c-6,-17 -12,-33 -18,-50 -6,-16 -11,-34 -16,-53 -4,-19 -6,-35 -6,-48 0,-33 13,-63 40,-91 27,-27 60,-41 101,-41 49,0 84,15 105,45 21,30 42,79 63,145zm21359 904l0 222c0,54 -13,94 -38,121 -25,27 -57,41 -96,41 -38,0 -70,-14 -95,-41 -25,-27 -37,-68 -37,-121l0 -742c0,-120 43,-179 130,-179 44,0 76,14 95,42 20,28 30,70 32,124 32,-55 64,-96 98,-124 34,-28 78,-42 134,-42 56,0 110,14 163,42 53,28 79,65 79,112 0,33 -11,59 -34,81 -22,21 -47,32 -73,32 -10,0 -33,-6 -71,-18 -38,-12 -71,-18 -99,-18 -39,0 -71,10 -96,31 -25,21 -44,51 -58,91 -14,40 -23,88 -28,144 -5,56 -8,123 -8,203zm1497 -138l0 354c0,56 -13,98 -38,126 -25,28 -59,42 -100,42 -40,0 -73,-14 -98,-42 -25,-28 -38,-70 -38,-126l0 -424c0,-67 -2,-119 -7,-156 -4,-37 -17,-68 -37,-91 -20,-24 -52,-36 -96,-36 -87,0 -145,30 -172,90 -28,60 -42,146 -42,257l0 360c0,55 -13,97 -38,126 -25,28 -58,42 -99,42 -40,0 -73,-14 -99,-42 -26,-28 -39,-70 -39,-126l0 -762c0,-50 12,-88 35,-114 23,-26 53,-39 91,-39 37,0 67,12 91,37 24,24 37,58 37,101l0 25c46,-55 96,-96 148,-122 53,-26 111,-39 175,-39 67,0 125,13 173,40 48,27 88,67 119,121 45,-55 93,-95 145,-121 51,-26 108,-40 171,-40 73,0 136,14 188,43 53,29 92,70 118,123 23,48 34,124 34,227l0 520c0,56 -13,98 -38,126 -25,28 -59,42 -100,42 -40,0 -73,-14 -99,-42 -26,-28 -39,-70 -39,-126l0 -448c0,-57 -2,-103 -7,-138 -5,-34 -18,-63 -40,-87 -21,-23 -54,-35 -98,-35 -35,0 -69,10 -100,31 -31,21 -56,49 -74,84 -20,45 -29,124 -29,238zm1880 -19c0,80 -12,153 -37,219 -25,67 -61,125 -108,172 -47,48 -103,85 -168,111 -65,26 -138,39 -219,39 -81,0 -154,-13 -218,-39 -64,-26 -120,-63 -168,-112 -47,-48 -83,-106 -107,-172 -24,-66 -37,-139 -37,-219 0,-81 12,-155 37,-221 25,-67 60,-124 107,-172 46,-47 102,-84 168,-110 66,-26 138,-39 218,-39 81,0 154,13 219,39 66,26 122,63 169,112 47,48 83,105 107,172 24,66 37,140 37,219zm-268 0c0,-109 -24,-193 -72,-253 -48,-60 -112,-91 -192,-91 -52,0 -98,13 -138,40 -40,27 -70,67 -92,120 -22,53 -32,114 -32,184 0,70 11,131 32,182 21,52 51,92 91,120 39,28 86,41 139,41 81,0 145,-30 192,-91 48,-61 72,-145 72,-252zm719 -395l0 32c47,-62 98,-107 154,-136 56,-29 120,-43 192,-43 70,0 133,15 188,46 55,30 97,74 124,130 18,33 29,68 34,106 5,38 8,86 8,144l0 496c0,53 -12,94 -37,121 -24,27 -56,41 -95,41 -40,0 -72,-14 -97,-42 -25,-28 -37,-68 -37,-120l0 -444c0,-88 -12,-155 -37,-201 -24,-46 -73,-70 -146,-70 -47,0 -91,14 -130,42 -39,28 -68,67 -86,117 -13,40 -20,114 -20,222l0 334c0,54 -13,94 -38,121 -25,27 -57,41 -97,41 -38,0 -70,-14 -95,-42 -25,-28 -37,-68 -37,-120l0 -770c0,-51 11,-89 33,-114 22,-25 52,-38 91,-38 23,0 45,6 63,17 19,11 34,28 45,50 11,22 17,49 17,81zm1231 4l0 770c0,53 -13,94 -38,121 -25,27 -57,41 -96,41 -39,0 -71,-14 -95,-42 -24,-28 -37,-68 -37,-120l0 -762c0,-53 12,-93 37,-119 24,-27 56,-40 95,-40 39,0 71,13 96,40 25,27 38,64 38,111zm-132 -275c-37,0 -69,-11 -95,-34 -26,-23 -39,-55 -39,-97 0,-37 13,-68 40,-93 27,-24 58,-37 94,-37 35,0 65,11 92,33 27,22 40,54 40,96 0,41 -13,73 -39,96 -26,23 -57,35 -93,35zm1080 1057c-65,50 -127,87 -187,112 -60,25 -128,37 -202,37 -68,0 -129,-14 -180,-41 -52,-27 -92,-63 -120,-110 -28,-46 -42,-96 -42,-150 0,-73 23,-135 69,-186 46,-52 110,-86 191,-104 17,-4 59,-13 126,-26 67,-14 125,-26 172,-38 48,-11 100,-25 156,-41 -3,-70 -17,-122 -42,-155 -25,-33 -77,-49 -156,-49 -68,0 -119,9 -153,28 -34,19 -64,47 -88,85 -24,38 -42,62 -52,75 -10,12 -32,18 -65,18 -30,0 -56,-10 -78,-29 -22,-19 -33,-44 -33,-74 0,-47 17,-93 50,-137 33,-44 85,-81 155,-109 70,-29 158,-43 263,-43 117,0 209,14 276,42 67,28 114,71 142,131 28,60 42,139 42,238 0,63 0,116 -1,159 0,44 -1,92 -1,146 0,50 8,102 25,157 17,54 25,89 25,105 0,27 -13,52 -38,75 -26,22 -55,34 -88,34 -27,0 -54,-13 -81,-38 -27,-26 -55,-63 -85,-111zm-18 -386c-39,14 -96,30 -170,45 -74,16 -126,28 -155,35 -29,8 -56,22 -82,44 -26,22 -39,52 -39,92 0,40 15,75 46,103 30,28 70,43 120,43 53,0 101,-12 146,-35 45,-23 77,-53 98,-90 24,-40 36,-107 36,-199l0 -38zm-25631 386c-65,50 -127,87 -187,112 -60,25 -128,37 -202,37 -68,0 -129,-14 -180,-41 -52,-27 -92,-63 -120,-110 -28,-46 -42,-96 -42,-150 0,-73 23,-135 69,-186 46,-52 110,-86 191,-104 17,-4 59,-13 126,-26 67,-14 125,-26 172,-38 48,-11 100,-25 156,-41 -3,-70 -17,-122 -42,-155 -25,-33 -77,-49 -156,-49 -68,0 -119,9 -153,28 -34,19 -64,47 -88,85 -24,38 -42,62 -52,75 -10,12 -32,18 -65,18 -30,0 -56,-10 -78,-29 -22,-19 -33,-44 -33,-74 0,-47 17,-93 50,-137 33,-44 85,-81 155,-109 70,-29 158,-43 263,-43 117,0 209,14 276,42 67,28 114,71 142,131 28,60 42,139 42,238 0,63 0,116 -1,159 0,44 -1,92 -1,146 0,50 8,102 25,157 17,54 25,89 25,105 0,27 -13,52 -38,75 -26,22 -55,34 -88,34 -27,0 -54,-13 -81,-38 -27,-26 -55,-63 -85,-111zm-18 -386c-39,14 -96,30 -170,45 -74,16 -126,28 -155,35 -29,8 -56,22 -82,44 -26,22 -39,52 -39,92 0,40 15,75 46,103 30,28 70,43 120,43 53,0 101,-12 146,-35 45,-23 77,-53 98,-90 24,-40 36,-107 36,-199l0 -38zm532 374l0 -1155c0,-53 12,-94 36,-121 24,-27 56,-41 96,-41 40,0 73,14 97,41 25,27 37,67 37,121l0 1155c0,54 -13,94 -38,121 -25,27 -57,41 -97,41 -39,0 -71,-14 -95,-42 -24,-28 -37,-68 -37,-120zm1539 -379c0,80 -12,153 -37,219 -25,67 -61,125 -108,172 -47,48 -103,85 -168,111 -65,26 -138,39 -219,39 -81,0 -154,-13 -218,-39 -64,-26 -120,-63 -167,-112 -47,-48 -83,-106 -107,-172 -24,-66 -37,-139 -37,-219 0,-81 12,-155 37,-221 25,-67 60,-124 107,-172 46,-47 102,-84 168,-110 66,-26 138,-39 218,-39 81,0 154,13 219,39 66,26 122,63 169,112 47,48 83,105 107,172 24,66 37,140 37,219zm-268 0c0,-109 -24,-193 -72,-253 -48,-60 -112,-91 -192,-91 -52,0 -98,13 -138,40 -40,27 -70,67 -92,120 -22,53 -32,114 -32,184 0,70 11,131 32,182 21,52 51,92 91,120 39,28 86,41 139,41 81,0 145,-30 192,-91 48,-61 72,-145 72,-252zm741 157l0 222c0,54 -13,94 -38,121 -25,27 -57,41 -96,41 -38,0 -70,-14 -95,-41 -25,-27 -37,-68 -37,-121l0 -742c0,-120 43,-179 130,-179 44,0 76,14 95,42 20,28 30,70 32,124 32,-55 64,-96 98,-124 34,-28 78,-42 134,-42 56,0 110,14 163,42 53,28 79,65 79,112 0,33 -11,59 -34,81 -22,21 -47,32 -73,32 -10,0 -33,-6 -71,-18 -38,-12 -71,-18 -99,-18 -39,0 -71,10 -96,31 -25,21 -44,51 -58,91 -14,40 -23,88 -28,144 -5,56 -8,123 -8,203zm877 -547l0 770c0,53 -13,94 -38,121 -25,27 -57,41 -96,41 -39,0 -71,-14 -95,-42 -24,-28 -37,-68 -37,-120l0 -762c0,-53 12,-93 37,-119 24,-27 56,-40 95,-40 39,0 71,13 96,40 25,27 38,64 38,111zm-132 -275c-37,0 -69,-11 -95,-34 -26,-23 -39,-55 -39,-97 0,-37 13,-68 40,-93 27,-24 58,-37 94,-37 35,0 65,11 92,33 27,22 40,54 40,96 0,41 -13,73 -39,96 -26,23 -57,35 -93,35zm1131 430l-488 545 522 0c42,0 74,10 96,30 22,20 32,46 32,77 0,30 -11,54 -32,73 -21,19 -53,28 -96,28l-722 0c-51,0 -89,-11 -114,-33 -25,-22 -38,-52 -38,-91 0,-23 9,-46 26,-69 18,-23 54,-65 109,-127 59,-65 112,-124 160,-177 48,-53 92,-102 133,-148 41,-46 75,-85 102,-117 27,-32 49,-59 65,-82l-396 0c-55,0 -96,-5 -124,-15 -28,-10 -42,-35 -42,-77 0,-30 10,-55 32,-73 21,-18 51,-27 90,-27l612 0c57,0 100,8 130,25 30,16 45,46 45,89 0,14 -3,29 -9,44 -6,15 -12,28 -20,38 -7,10 -17,22 -29,36 -12,14 -28,31 -46,50zm991 628c-65,50 -127,87 -187,112 -60,25 -128,37 -202,37 -68,0 -129,-14 -180,-41 -52,-27 -92,-63 -120,-110 -28,-46 -42,-96 -42,-150 0,-73 23,-135 69,-186 46,-52 110,-86 191,-104 17,-4 59,-13 126,-26 67,-14 125,-26 172,-38 48,-11 100,-25 156,-41 -3,-70 -17,-122 -42,-155 -25,-33 -77,-49 -156,-49 -68,0 -119,9 -153,28 -34,19 -64,47 -88,85 -24,38 -42,62 -52,75 -10,12 -32,18 -65,18 -30,0 -56,-10 -78,-29 -22,-19 -33,-44 -33,-74 0,-47 17,-93 50,-137 33,-44 85,-81 155,-109 70,-29 158,-43 263,-43 117,0 209,14 276,42 67,28 114,71 142,131 28,60 42,139 42,238 0,63 0,116 -1,159 0,44 -1,92 -1,146 0,50 8,102 25,157 17,54 25,89 25,105 0,27 -13,52 -38,75 -26,22 -55,34 -88,34 -27,0 -54,-13 -81,-38 -27,-26 -55,-63 -85,-111zm-18 -386c-39,14 -96,30 -170,45 -74,16 -126,28 -155,35 -29,8 -56,22 -82,44 -26,22 -39,52 -39,92 0,40 15,75 46,103 30,28 70,43 120,43 53,0 101,-12 146,-35 45,-23 77,-53 98,-90 24,-40 36,-107 36,-199l0 -38zm796 151l0 222c0,54 -13,94 -38,121 -25,27 -57,41 -96,41 -38,0 -70,-14 -95,-41 -25,-27 -37,-68 -37,-121l0 -742c0,-120 43,-179 130,-179 44,0 76,14 95,42 20,28 30,70 32,124 32,-55 64,-96 98,-124 34,-28 78,-42 134,-42 56,0 110,14 163,42 53,28 79,65 79,112 0,33 -11,59 -34,81 -22,21 -47,32 -73,32 -10,0 -33,-6 -71,-18 -38,-12 -71,-18 -99,-18 -39,0 -71,10 -96,31 -25,21 -44,51 -58,91 -14,40 -23,88 -28,144 -5,56 -8,123 -8,203zm1784 235c-65,50 -127,87 -187,112 -60,25 -128,37 -202,37 -68,0 -129,-14 -180,-41 -52,-27 -92,-63 -120,-110 -28,-46 -42,-96 -42,-150 0,-73 23,-135 69,-186 46,-52 110,-86 191,-104 17,-4 59,-13 126,-26 67,-14 125,-26 172,-38 48,-11 100,-25 156,-41 -3,-70 -17,-122 -42,-155 -25,-33 -77,-49 -156,-49 -68,0 -119,9 -153,28 -34,19 -64,47 -88,85 -24,38 -42,62 -52,75 -10,12 -32,18 -65,18 -30,0 -56,-10 -78,-29 -22,-19 -33,-44 -33,-74 0,-47 17,-93 50,-137 33,-44 85,-81 155,-109 70,-29 158,-43 263,-43 117,0 209,14 276,42 67,28 114,71 142,131 28,60 42,139 42,238 0,63 0,116 -1,159 0,44 -1,92 -1,146 0,50 8,102 25,157 17,54 25,89 25,105 0,27 -13,52 -38,75 -26,22 -55,34 -88,34 -27,0 -54,-13 -81,-38 -27,-26 -55,-63 -85,-111zm-18 -386c-39,14 -96,30 -170,45 -74,16 -126,28 -155,35 -29,8 -56,22 -82,44 -26,22 -39,52 -39,92 0,40 15,75 46,103 30,28 70,43 120,43 53,0 101,-12 146,-35 45,-23 77,-53 98,-90 24,-40 36,-107 36,-199l0 -38zm1219 -382l215 605 232 -632c18,-51 36,-87 54,-108 18,-21 44,-32 80,-32 34,0 63,11 86,34 24,23 36,49 36,79 0,12 -2,25 -6,41 -4,16 -9,30 -15,44 -6,14 -12,29 -19,47l-255 634c-7,18 -16,41 -28,69 -11,28 -24,52 -38,72 -14,20 -31,35 -52,46 -21,11 -45,17 -75,17 -38,0 -68,-9 -90,-26 -22,-17 -39,-36 -50,-57 -11,-20 -29,-61 -54,-121l-253 -627c-6,-16 -12,-31 -18,-47 -6,-16 -11,-31 -16,-48 -4,-16 -6,-30 -6,-42 0,-18 6,-36 17,-54 11,-18 26,-33 46,-44 20,-11 41,-17 64,-17 44,0 75,13 91,38 16,26 35,68 55,128zm1161 -15l0 770c0,53 -13,94 -38,121 -25,27 -57,41 -96,41 -39,0 -71,-14 -95,-42 -24,-28 -37,-68 -37,-120l0 -762c0,-53 12,-93 37,-119 24,-27 56,-40 95,-40 39,0 71,13 96,40 25,27 38,64 38,111zm-132 -275c-37,0 -69,-11 -95,-34 -26,-23 -39,-55 -39,-97 0,-37 13,-68 40,-93 27,-24 58,-37 94,-37 35,0 65,11 92,33 27,22 40,54 40,96 0,41 -13,73 -39,96 -26,23 -57,35 -93,35zm1137 1055l0 -26c-36,41 -71,74 -106,100 -35,26 -73,45 -113,59 -41,13 -85,20 -133,20 -64,0 -123,-14 -177,-41 -54,-27 -102,-65 -141,-116 -40,-50 -70,-109 -90,-176 -20,-68 -31,-141 -31,-219 0,-167 41,-296 122,-389 81,-93 188,-140 321,-140 77,0 142,13 194,40 53,26 104,67 154,122l0 -393c0,-55 11,-96 33,-124 22,-28 53,-42 93,-42 40,0 71,13 93,39 22,26 33,64 33,114l0 1174c0,51 -12,89 -35,114 -24,25 -54,38 -91,38 -36,0 -67,-13 -90,-40 -24,-26 -36,-64 -36,-113zm-523 -391c0,72 11,134 34,184 22,51 53,89 92,114 39,26 82,39 128,39 47,0 90,-12 128,-37 39,-24 70,-62 93,-112 23,-51 35,-113 35,-189 0,-71 -12,-132 -35,-182 -23,-51 -54,-90 -94,-117 -39,-27 -82,-40 -129,-40 -49,0 -92,14 -131,41 -38,28 -68,67 -89,119 -21,52 -32,112 -32,180zm1716 394c-65,50 -127,87 -187,112 -60,25 -128,37 -202,37 -68,0 -129,-14 -180,-41 -52,-27 -92,-63 -120,-110 -28,-46 -42,-96 -42,-150 0,-73 23,-135 69,-186 46,-52 110,-86 191,-104 17,-4 59,-13 126,-26 67,-14 125,-26 172,-38 48,-11 100,-25 156,-41 -3,-70 -17,-122 -42,-155 -25,-33 -77,-49 -156,-49 -68,0 -119,9 -153,28 -34,19 -64,47 -88,85 -24,38 -42,62 -52,75 -10,12 -32,18 -65,18 -30,0 -56,-10 -78,-29 -22,-19 -33,-44 -33,-74 0,-47 17,-93 50,-137 33,-44 85,-81 155,-109 70,-29 158,-43 263,-43 117,0 209,14 276,42 67,28 114,71 142,131 28,60 42,139 42,238 0,63 0,116 -1,159 0,44 -1,92 -1,146 0,50 8,102 25,157 17,54 25,89 25,105 0,27 -13,52 -38,75 -26,22 -55,34 -88,34 -27,0 -54,-13 -81,-38 -27,-26 -55,-63 -85,-111zm-18 -386c-39,14 -96,30 -170,45 -74,16 -126,28 -155,35 -29,8 -56,22 -82,44 -26,22 -39,52 -39,92 0,40 15,75 46,103 30,28 70,43 120,43 53,0 101,-12 146,-35 45,-23 77,-53 98,-90 24,-40 36,-107 36,-199l0 -38zm1774 60l-521 0c1,61 13,114 37,160 24,46 55,81 95,104 39,24 83,35 130,35 32,0 61,-4 87,-11 27,-7 52,-19 77,-35 25,-16 48,-33 68,-51 21,-18 48,-43 81,-74 14,-12 33,-18 58,-18 27,0 50,8 67,23 17,15 25,36 25,63 0,24 -10,52 -28,84 -19,32 -47,63 -86,92 -38,30 -86,54 -143,74 -58,20 -124,29 -198,29 -171,0 -304,-49 -399,-147 -95,-98 -142,-230 -142,-397 0,-79 12,-152 35,-219 23,-67 58,-125 102,-173 45,-48 100,-85 166,-111 66,-26 139,-39 218,-39 104,0 193,22 268,66 75,44 130,101 168,170 37,70 56,141 56,213 0,67 -19,111 -58,131 -38,20 -92,30 -162,30zm-521 -152l483 0c-6,-91 -31,-159 -74,-204 -43,-45 -99,-68 -168,-68 -67,0 -121,23 -164,69 -43,46 -69,114 -78,203zm1851 106l0 354c0,56 -13,98 -38,126 -25,28 -59,42 -100,42 -40,0 -73,-14 -98,-42 -25,-28 -38,-70 -38,-126l0 -424c0,-67 -2,-119 -7,-156 -4,-37 -17,-68 -37,-91 -20,-24 -52,-36 -96,-36 -87,0 -145,30 -172,90 -28,60 -42,146 -42,257l0 360c0,55 -13,97 -38,126 -25,28 -58,42 -99,42 -40,0 -73,-14 -99,-42 -26,-28 -39,-70 -39,-126l0 -762c0,-50 12,-88 35,-114 23,-26 53,-39 91,-39 37,0 67,12 91,37 24,24 37,58 37,101l0 25c46,-55 96,-96 148,-122 53,-26 111,-39 175,-39 67,0 125,13 173,40 48,27 88,67 119,121 45,-55 93,-95 145,-121 51,-26 108,-40 171,-40 73,0 136,14 188,43 53,29 92,70 118,123 23,48 34,124 34,227l0 520c0,56 -13,98 -38,126 -25,28 -59,42 -100,42 -40,0 -73,-14 -99,-42 -26,-28 -39,-70 -39,-126l0 -448c0,-57 -2,-103 -7,-138 -5,-34 -18,-63 -40,-87 -21,-23 -54,-35 -98,-35 -35,0 -69,10 -100,31 -31,21 -56,49 -74,84 -20,45 -29,124 -29,238zm1642 -795l0 395c34,-39 67,-70 99,-93 32,-23 68,-40 107,-51 39,-11 81,-17 126,-17 68,0 128,14 180,43 52,29 93,70 123,125 19,32 32,67 38,107 6,39 10,85 10,136l0 510c0,53 -12,94 -37,121 -24,27 -57,41 -97,41 -88,0 -132,-54 -132,-162l0 -450c0,-85 -13,-151 -38,-196 -25,-46 -74,-69 -145,-69 -47,0 -90,14 -128,41 -38,27 -67,64 -85,111 -14,40 -22,110 -22,212l0 352c0,53 -12,93 -36,120 -24,28 -57,42 -99,42 -88,0 -132,-54 -132,-162l0 -1155c0,-54 12,-94 35,-121 23,-27 55,-41 97,-41 42,0 75,14 99,41 24,27 36,68 36,121zm1620 1167c-65,50 -127,87 -187,112 -60,25 -128,37 -202,37 -68,0 -129,-14 -180,-41 -52,-27 -92,-63 -120,-110 -28,-46 -42,-96 -42,-150 0,-73 23,-135 69,-186 46,-52 110,-86 191,-104 17,-4 59,-13 126,-26 67,-14 125,-26 172,-38 48,-11 100,-25 156,-41 -3,-70 -17,-122 -42,-155 -25,-33 -77,-49 -156,-49 -68,0 -119,9 -153,28 -34,19 -64,47 -88,85 -24,38 -42,62 -52,75 -10,12 -32,18 -65,18 -30,0 -56,-10 -78,-29 -22,-19 -33,-44 -33,-74 0,-47 17,-93 50,-137 33,-44 85,-81 155,-109 70,-29 158,-43 263,-43 117,0 209,14 276,42 67,28 114,71 142,131 28,60 42,139 42,238 0,63 0,116 -1,159 0,44 -1,92 -1,146 0,50 8,102 25,157 17,54 25,89 25,105 0,27 -13,52 -38,75 -26,22 -55,34 -88,34 -27,0 -54,-13 -81,-38 -27,-26 -55,-63 -85,-111zm-18 -386c-39,14 -96,30 -170,45 -74,16 -126,28 -155,35 -29,8 -56,22 -82,44 -26,22 -39,52 -39,92 0,40 15,75 46,103 30,28 70,43 120,43 53,0 101,-12 146,-35 45,-23 77,-53 98,-90 24,-40 36,-107 36,-199l0 -38z"/>
  </g>
 </g>
</svg>
