<?xml version="1.0" encoding="UTF-8" standalone="no"?>
<!-- Creator: CorelDRAW X6 -->

<svg
   xmlns:dc="http://purl.org/dc/elements/1.1/"
   xmlns:cc="http://creativecommons.org/ns#"
   xmlns:rdf="http://www.w3.org/1999/02/22-rdf-syntax-ns#"
   xmlns:svg="http://www.w3.org/2000/svg"
   xmlns="http://www.w3.org/2000/svg"
   xmlns:sodipodi="http://sodipodi.sourceforge.net/DTD/sodipodi-0.dtd"
   xmlns:inkscape="http://www.inkscape.org/namespaces/inkscape"
   xml:space="preserve"
   width="588.662mm"
   height="227.276mm"
   version="1.1"
   style="shape-rendering:geometricPrecision; text-rendering:geometricPrecision; image-rendering:optimizeQuality; fill-rule:evenodd; clip-rule:evenodd"
   viewBox="0 0 58866 22728"
   id="svg13"
   sodipodi:docname="logoVerticalPreto.svg"
   inkscape:version="0.92.1 r15371"><sodipodi:namedview
     pagecolor="#ffffff"
     bordercolor="#666666"
     borderopacity="1"
     objecttolerance="10"
     gridtolerance="10"
     guidetolerance="10"
     inkscape:pageopacity="0"
     inkscape:pageshadow="2"
     inkscape:window-width="1319"
     inkscape:window-height="744"
     id="namedview15"
     showgrid="false"
     inkscape:zoom="0.18370007"
     inkscape:cx="1317.3033"
     inkscape:cy="-670.10887"
     inkscape:window-x="47"
     inkscape:window-y="24"
     inkscape:window-maximized="1"
     inkscape:current-layer="svg13" /><metadata
     id="metadata17"><rdf:RDF><cc:Work
         rdf:about=""><dc:format>image/svg+xml</dc:format><dc:type
           rdf:resource="http://purl.org/dc/dcmitype/StillImage" /><dc:title></dc:title></cc:Work></rdf:RDF></metadata><defs
     id="defs4"><style
       id="style2"
       type="text/css">
    .fil0 {fill:none}
    .fil1 {fill:#FEFEFE}
   </style></defs><g
     id="_628822208"><polygon
       class="fil0"
       points="58866,22728 0,22728 0,0 58866,0 "
       id="polygon7"
       style="fill:none;opacity:1" /><path
       class="fil1"
       d="m 15903,12271 c 237,-245 1092,-1117 1342,-2050 251,-933 623,-2178 1040,-2012 334,133 69,3956 -2382,4062 z m 8967,2586 324,959 325,-965 c 17,-51 30,-86 38,-106 9,-20 23,-38 42,-54 20,-16 46,-24 80,-24 25,0 48,6 69,19 21,12 38,29 50,49 12,20 18,41 18,62 0,14 -2,30 -6,46 -4,16 -9,33 -14,49 -6,16 -12,32 -18,49 l -346,934 c -13,36 -25,70 -37,102 -12,32 -27,60 -43,85 -16,24 -38,44 -65,60 -27,16 -60,23 -99,23 -39,0 -72,-8 -99,-23 -27,-15 -49,-35 -65,-60 -16,-25 -31,-54 -43,-86 -12,-32 -25,-66 -37,-101 l -340,-927 c -6,-17 -12,-33 -18,-50 -6,-16 -11,-34 -16,-53 -4,-19 -6,-35 -6,-48 0,-33 13,-63 40,-91 27,-27 60,-41 101,-41 49,0 84,15 105,45 21,30 42,79 63,145 z m 21359,904 v 222 c 0,54 -13,94 -38,121 -25,27 -57,41 -96,41 -38,0 -70,-14 -95,-41 -25,-27 -37,-68 -37,-121 v -742 c 0,-120 43,-179 130,-179 44,0 76,14 95,42 20,28 30,70 32,124 32,-55 64,-96 98,-124 34,-28 78,-42 134,-42 56,0 110,14 163,42 53,28 79,65 79,112 0,33 -11,59 -34,81 -22,21 -47,32 -73,32 -10,0 -33,-6 -71,-18 -38,-12 -71,-18 -99,-18 -39,0 -71,10 -96,31 -25,21 -44,51 -58,91 -14,40 -23,88 -28,144 -5,56 -8,123 -8,203 z m 1497,-138 v 354 c 0,56 -13,98 -38,126 -25,28 -59,42 -100,42 -40,0 -73,-14 -98,-42 -25,-28 -38,-70 -38,-126 v -424 c 0,-67 -2,-119 -7,-156 -4,-37 -17,-68 -37,-91 -20,-24 -52,-36 -96,-36 -87,0 -145,30 -172,90 -28,60 -42,146 -42,257 v 360 c 0,55 -13,97 -38,126 -25,28 -58,42 -99,42 -40,0 -73,-14 -99,-42 -26,-28 -39,-70 -39,-126 v -762 c 0,-50 12,-88 35,-114 23,-26 53,-39 91,-39 37,0 67,12 91,37 24,24 37,58 37,101 v 25 c 46,-55 96,-96 148,-122 53,-26 111,-39 175,-39 67,0 125,13 173,40 48,27 88,67 119,121 45,-55 93,-95 145,-121 51,-26 108,-40 171,-40 73,0 136,14 188,43 53,29 92,70 118,123 23,48 34,124 34,227 v 520 c 0,56 -13,98 -38,126 -25,28 -59,42 -100,42 -40,0 -73,-14 -99,-42 -26,-28 -39,-70 -39,-126 v -448 c 0,-57 -2,-103 -7,-138 -5,-34 -18,-63 -40,-87 -21,-23 -54,-35 -98,-35 -35,0 -69,10 -100,31 -31,21 -56,49 -74,84 -20,45 -29,124 -29,238 z m 1880,-19 c 0,80 -12,153 -37,219 -25,67 -61,125 -108,172 -47,48 -103,85 -168,111 -65,26 -138,39 -219,39 -81,0 -154,-13 -218,-39 -64,-26 -120,-63 -168,-112 -47,-48 -83,-106 -107,-172 -24,-66 -37,-139 -37,-219 0,-81 12,-155 37,-221 25,-67 60,-124 107,-172 46,-47 102,-84 168,-110 66,-26 138,-39 218,-39 81,0 154,13 219,39 66,26 122,63 169,112 47,48 83,105 107,172 24,66 37,140 37,219 z m -268,0 c 0,-109 -24,-193 -72,-253 -48,-60 -112,-91 -192,-91 -52,0 -98,13 -138,40 -40,27 -70,67 -92,120 -22,53 -32,114 -32,184 0,70 11,131 32,182 21,52 51,92 91,120 39,28 86,41 139,41 81,0 145,-30 192,-91 48,-61 72,-145 72,-252 z m 719,-395 v 32 c 47,-62 98,-107 154,-136 56,-29 120,-43 192,-43 70,0 133,15 188,46 55,30 97,74 124,130 18,33 29,68 34,106 5,38 8,86 8,144 v 496 c 0,53 -12,94 -37,121 -24,27 -56,41 -95,41 -40,0 -72,-14 -97,-42 -25,-28 -37,-68 -37,-120 v -444 c 0,-88 -12,-155 -37,-201 -24,-46 -73,-70 -146,-70 -47,0 -91,14 -130,42 -39,28 -68,67 -86,117 -13,40 -20,114 -20,222 v 334 c 0,54 -13,94 -38,121 -25,27 -57,41 -97,41 -38,0 -70,-14 -95,-42 -25,-28 -37,-68 -37,-120 v -770 c 0,-51 11,-89 33,-114 22,-25 52,-38 91,-38 23,0 45,6 63,17 19,11 34,28 45,50 11,22 17,49 17,81 z m 1231,4 v 770 c 0,53 -13,94 -38,121 -25,27 -57,41 -96,41 -39,0 -71,-14 -95,-42 -24,-28 -37,-68 -37,-120 v -762 c 0,-53 12,-93 37,-119 24,-27 56,-40 95,-40 39,0 71,13 96,40 25,27 38,64 38,111 z m -132,-275 c -37,0 -69,-11 -95,-34 -26,-23 -39,-55 -39,-97 0,-37 13,-68 40,-93 27,-24 58,-37 94,-37 35,0 65,11 92,33 27,22 40,54 40,96 0,41 -13,73 -39,96 -26,23 -57,35 -93,35 z m 1080,1057 c -65,50 -127,87 -187,112 -60,25 -128,37 -202,37 -68,0 -129,-14 -180,-41 -52,-27 -92,-63 -120,-110 -28,-46 -42,-96 -42,-150 0,-73 23,-135 69,-186 46,-52 110,-86 191,-104 17,-4 59,-13 126,-26 67,-14 125,-26 172,-38 48,-11 100,-25 156,-41 -3,-70 -17,-122 -42,-155 -25,-33 -77,-49 -156,-49 -68,0 -119,9 -153,28 -34,19 -64,47 -88,85 -24,38 -42,62 -52,75 -10,12 -32,18 -65,18 -30,0 -56,-10 -78,-29 -22,-19 -33,-44 -33,-74 0,-47 17,-93 50,-137 33,-44 85,-81 155,-109 70,-29 158,-43 263,-43 117,0 209,14 276,42 67,28 114,71 142,131 28,60 42,139 42,238 0,63 0,116 -1,159 0,44 -1,92 -1,146 0,50 8,102 25,157 17,54 25,89 25,105 0,27 -13,52 -38,75 -26,22 -55,34 -88,34 -27,0 -54,-13 -81,-38 -27,-26 -55,-63 -85,-111 z m -18,-386 c -39,14 -96,30 -170,45 -74,16 -126,28 -155,35 -29,8 -56,22 -82,44 -26,22 -39,52 -39,92 0,40 15,75 46,103 30,28 70,43 120,43 53,0 101,-12 146,-35 45,-23 77,-53 98,-90 24,-40 36,-107 36,-199 z m -25631,386 c -65,50 -127,87 -187,112 -60,25 -128,37 -202,37 -68,0 -129,-14 -180,-41 -52,-27 -92,-63 -120,-110 -28,-46 -42,-96 -42,-150 0,-73 23,-135 69,-186 46,-52 110,-86 191,-104 17,-4 59,-13 126,-26 67,-14 125,-26 172,-38 48,-11 100,-25 156,-41 -3,-70 -17,-122 -42,-155 -25,-33 -77,-49 -156,-49 -68,0 -119,9 -153,28 -34,19 -64,47 -88,85 -24,38 -42,62 -52,75 -10,12 -32,18 -65,18 -30,0 -56,-10 -78,-29 -22,-19 -33,-44 -33,-74 0,-47 17,-93 50,-137 33,-44 85,-81 155,-109 70,-29 158,-43 263,-43 117,0 209,14 276,42 67,28 114,71 142,131 28,60 42,139 42,238 0,63 0,116 -1,159 0,44 -1,92 -1,146 0,50 8,102 25,157 17,54 25,89 25,105 0,27 -13,52 -38,75 -26,22 -55,34 -88,34 -27,0 -54,-13 -81,-38 -27,-26 -55,-63 -85,-111 z m -18,-386 c -39,14 -96,30 -170,45 -74,16 -126,28 -155,35 -29,8 -56,22 -82,44 -26,22 -39,52 -39,92 0,40 15,75 46,103 30,28 70,43 120,43 53,0 101,-12 146,-35 45,-23 77,-53 98,-90 24,-40 36,-107 36,-199 z m 532,374 v -1155 c 0,-53 12,-94 36,-121 24,-27 56,-41 96,-41 40,0 73,14 97,41 25,27 37,67 37,121 v 1155 c 0,54 -13,94 -38,121 -25,27 -57,41 -97,41 -39,0 -71,-14 -95,-42 -24,-28 -37,-68 -37,-120 z m 1539,-379 c 0,80 -12,153 -37,219 -25,67 -61,125 -108,172 -47,48 -103,85 -168,111 -65,26 -138,39 -219,39 -81,0 -154,-13 -218,-39 -64,-26 -120,-63 -167,-112 -47,-48 -83,-106 -107,-172 -24,-66 -37,-139 -37,-219 0,-81 12,-155 37,-221 25,-67 60,-124 107,-172 46,-47 102,-84 168,-110 66,-26 138,-39 218,-39 81,0 154,13 219,39 66,26 122,63 169,112 47,48 83,105 107,172 24,66 37,140 37,219 z m -268,0 c 0,-109 -24,-193 -72,-253 -48,-60 -112,-91 -192,-91 -52,0 -98,13 -138,40 -40,27 -70,67 -92,120 -22,53 -32,114 -32,184 0,70 11,131 32,182 21,52 51,92 91,120 39,28 86,41 139,41 81,0 145,-30 192,-91 48,-61 72,-145 72,-252 z m 741,157 v 222 c 0,54 -13,94 -38,121 -25,27 -57,41 -96,41 -38,0 -70,-14 -95,-41 -25,-27 -37,-68 -37,-121 v -742 c 0,-120 43,-179 130,-179 44,0 76,14 95,42 20,28 30,70 32,124 32,-55 64,-96 98,-124 34,-28 78,-42 134,-42 56,0 110,14 163,42 53,28 79,65 79,112 0,33 -11,59 -34,81 -22,21 -47,32 -73,32 -10,0 -33,-6 -71,-18 -38,-12 -71,-18 -99,-18 -39,0 -71,10 -96,31 -25,21 -44,51 -58,91 -14,40 -23,88 -28,144 -5,56 -8,123 -8,203 z m 877,-547 v 770 c 0,53 -13,94 -38,121 -25,27 -57,41 -96,41 -39,0 -71,-14 -95,-42 -24,-28 -37,-68 -37,-120 v -762 c 0,-53 12,-93 37,-119 24,-27 56,-40 95,-40 39,0 71,13 96,40 25,27 38,64 38,111 z m -132,-275 c -37,0 -69,-11 -95,-34 -26,-23 -39,-55 -39,-97 0,-37 13,-68 40,-93 27,-24 58,-37 94,-37 35,0 65,11 92,33 27,22 40,54 40,96 0,41 -13,73 -39,96 -26,23 -57,35 -93,35 z m 1131,430 -488,545 h 522 c 42,0 74,10 96,30 22,20 32,46 32,77 0,30 -11,54 -32,73 -21,19 -53,28 -96,28 h -722 c -51,0 -89,-11 -114,-33 -25,-22 -38,-52 -38,-91 0,-23 9,-46 26,-69 18,-23 54,-65 109,-127 59,-65 112,-124 160,-177 48,-53 92,-102 133,-148 41,-46 75,-85 102,-117 27,-32 49,-59 65,-82 h -396 c -55,0 -96,-5 -124,-15 -28,-10 -42,-35 -42,-77 0,-30 10,-55 32,-73 21,-18 51,-27 90,-27 h 612 c 57,0 100,8 130,25 30,16 45,46 45,89 0,14 -3,29 -9,44 -6,15 -12,28 -20,38 -7,10 -17,22 -29,36 -12,14 -28,31 -46,50 z m 991,628 c -65,50 -127,87 -187,112 -60,25 -128,37 -202,37 -68,0 -129,-14 -180,-41 -52,-27 -92,-63 -120,-110 -28,-46 -42,-96 -42,-150 0,-73 23,-135 69,-186 46,-52 110,-86 191,-104 17,-4 59,-13 126,-26 67,-14 125,-26 172,-38 48,-11 100,-25 156,-41 -3,-70 -17,-122 -42,-155 -25,-33 -77,-49 -156,-49 -68,0 -119,9 -153,28 -34,19 -64,47 -88,85 -24,38 -42,62 -52,75 -10,12 -32,18 -65,18 -30,0 -56,-10 -78,-29 -22,-19 -33,-44 -33,-74 0,-47 17,-93 50,-137 33,-44 85,-81 155,-109 70,-29 158,-43 263,-43 117,0 209,14 276,42 67,28 114,71 142,131 28,60 42,139 42,238 0,63 0,116 -1,159 0,44 -1,92 -1,146 0,50 8,102 25,157 17,54 25,89 25,105 0,27 -13,52 -38,75 -26,22 -55,34 -88,34 -27,0 -54,-13 -81,-38 -27,-26 -55,-63 -85,-111 z m -18,-386 c -39,14 -96,30 -170,45 -74,16 -126,28 -155,35 -29,8 -56,22 -82,44 -26,22 -39,52 -39,92 0,40 15,75 46,103 30,28 70,43 120,43 53,0 101,-12 146,-35 45,-23 77,-53 98,-90 24,-40 36,-107 36,-199 z m 796,151 v 222 c 0,54 -13,94 -38,121 -25,27 -57,41 -96,41 -38,0 -70,-14 -95,-41 -25,-27 -37,-68 -37,-121 v -742 c 0,-120 43,-179 130,-179 44,0 76,14 95,42 20,28 30,70 32,124 32,-55 64,-96 98,-124 34,-28 78,-42 134,-42 56,0 110,14 163,42 53,28 79,65 79,112 0,33 -11,59 -34,81 -22,21 -47,32 -73,32 -10,0 -33,-6 -71,-18 -38,-12 -71,-18 -99,-18 -39,0 -71,10 -96,31 -25,21 -44,51 -58,91 -14,40 -23,88 -28,144 -5,56 -8,123 -8,203 z m 1784,235 c -65,50 -127,87 -187,112 -60,25 -128,37 -202,37 -68,0 -129,-14 -180,-41 -52,-27 -92,-63 -120,-110 -28,-46 -42,-96 -42,-150 0,-73 23,-135 69,-186 46,-52 110,-86 191,-104 17,-4 59,-13 126,-26 67,-14 125,-26 172,-38 48,-11 100,-25 156,-41 -3,-70 -17,-122 -42,-155 -25,-33 -77,-49 -156,-49 -68,0 -119,9 -153,28 -34,19 -64,47 -88,85 -24,38 -42,62 -52,75 -10,12 -32,18 -65,18 -30,0 -56,-10 -78,-29 -22,-19 -33,-44 -33,-74 0,-47 17,-93 50,-137 33,-44 85,-81 155,-109 70,-29 158,-43 263,-43 117,0 209,14 276,42 67,28 114,71 142,131 28,60 42,139 42,238 0,63 0,116 -1,159 0,44 -1,92 -1,146 0,50 8,102 25,157 17,54 25,89 25,105 0,27 -13,52 -38,75 -26,22 -55,34 -88,34 -27,0 -54,-13 -81,-38 -27,-26 -55,-63 -85,-111 z m -18,-386 c -39,14 -96,30 -170,45 -74,16 -126,28 -155,35 -29,8 -56,22 -82,44 -26,22 -39,52 -39,92 0,40 15,75 46,103 30,28 70,43 120,43 53,0 101,-12 146,-35 45,-23 77,-53 98,-90 24,-40 36,-107 36,-199 z m 1219,-382 215,605 232,-632 c 18,-51 36,-87 54,-108 18,-21 44,-32 80,-32 34,0 63,11 86,34 24,23 36,49 36,79 0,12 -2,25 -6,41 -4,16 -9,30 -15,44 -6,14 -12,29 -19,47 l -255,634 c -7,18 -16,41 -28,69 -11,28 -24,52 -38,72 -14,20 -31,35 -52,46 -21,11 -45,17 -75,17 -38,0 -68,-9 -90,-26 -22,-17 -39,-36 -50,-57 -11,-20 -29,-61 -54,-121 l -253,-627 c -6,-16 -12,-31 -18,-47 -6,-16 -11,-31 -16,-48 -4,-16 -6,-30 -6,-42 0,-18 6,-36 17,-54 11,-18 26,-33 46,-44 20,-11 41,-17 64,-17 44,0 75,13 91,38 16,26 35,68 55,128 z m 1161,-15 v 770 c 0,53 -13,94 -38,121 -25,27 -57,41 -96,41 -39,0 -71,-14 -95,-42 -24,-28 -37,-68 -37,-120 v -762 c 0,-53 12,-93 37,-119 24,-27 56,-40 95,-40 39,0 71,13 96,40 25,27 38,64 38,111 z m -132,-275 c -37,0 -69,-11 -95,-34 -26,-23 -39,-55 -39,-97 0,-37 13,-68 40,-93 27,-24 58,-37 94,-37 35,0 65,11 92,33 27,22 40,54 40,96 0,41 -13,73 -39,96 -26,23 -57,35 -93,35 z m 1137,1055 v -26 c -36,41 -71,74 -106,100 -35,26 -73,45 -113,59 -41,13 -85,20 -133,20 -64,0 -123,-14 -177,-41 -54,-27 -102,-65 -141,-116 -40,-50 -70,-109 -90,-176 -20,-68 -31,-141 -31,-219 0,-167 41,-296 122,-389 81,-93 188,-140 321,-140 77,0 142,13 194,40 53,26 104,67 154,122 v -393 c 0,-55 11,-96 33,-124 22,-28 53,-42 93,-42 40,0 71,13 93,39 22,26 33,64 33,114 v 1174 c 0,51 -12,89 -35,114 -24,25 -54,38 -91,38 -36,0 -67,-13 -90,-40 -24,-26 -36,-64 -36,-113 z m -523,-391 c 0,72 11,134 34,184 22,51 53,89 92,114 39,26 82,39 128,39 47,0 90,-12 128,-37 39,-24 70,-62 93,-112 23,-51 35,-113 35,-189 0,-71 -12,-132 -35,-182 -23,-51 -54,-90 -94,-117 -39,-27 -82,-40 -129,-40 -49,0 -92,14 -131,41 -38,28 -68,67 -89,119 -21,52 -32,112 -32,180 z m 1716,394 c -65,50 -127,87 -187,112 -60,25 -128,37 -202,37 -68,0 -129,-14 -180,-41 -52,-27 -92,-63 -120,-110 -28,-46 -42,-96 -42,-150 0,-73 23,-135 69,-186 46,-52 110,-86 191,-104 17,-4 59,-13 126,-26 67,-14 125,-26 172,-38 48,-11 100,-25 156,-41 -3,-70 -17,-122 -42,-155 -25,-33 -77,-49 -156,-49 -68,0 -119,9 -153,28 -34,19 -64,47 -88,85 -24,38 -42,62 -52,75 -10,12 -32,18 -65,18 -30,0 -56,-10 -78,-29 -22,-19 -33,-44 -33,-74 0,-47 17,-93 50,-137 33,-44 85,-81 155,-109 70,-29 158,-43 263,-43 117,0 209,14 276,42 67,28 114,71 142,131 28,60 42,139 42,238 0,63 0,116 -1,159 0,44 -1,92 -1,146 0,50 8,102 25,157 17,54 25,89 25,105 0,27 -13,52 -38,75 -26,22 -55,34 -88,34 -27,0 -54,-13 -81,-38 -27,-26 -55,-63 -85,-111 z m -18,-386 c -39,14 -96,30 -170,45 -74,16 -126,28 -155,35 -29,8 -56,22 -82,44 -26,22 -39,52 -39,92 0,40 15,75 46,103 30,28 70,43 120,43 53,0 101,-12 146,-35 45,-23 77,-53 98,-90 24,-40 36,-107 36,-199 z m 1774,60 h -521 c 1,61 13,114 37,160 24,46 55,81 95,104 39,24 83,35 130,35 32,0 61,-4 87,-11 27,-7 52,-19 77,-35 25,-16 48,-33 68,-51 21,-18 48,-43 81,-74 14,-12 33,-18 58,-18 27,0 50,8 67,23 17,15 25,36 25,63 0,24 -10,52 -28,84 -19,32 -47,63 -86,92 -38,30 -86,54 -143,74 -58,20 -124,29 -198,29 -171,0 -304,-49 -399,-147 -95,-98 -142,-230 -142,-397 0,-79 12,-152 35,-219 23,-67 58,-125 102,-173 45,-48 100,-85 166,-111 66,-26 139,-39 218,-39 104,0 193,22 268,66 75,44 130,101 168,170 37,70 56,141 56,213 0,67 -19,111 -58,131 -38,20 -92,30 -162,30 z m -521,-152 h 483 c -6,-91 -31,-159 -74,-204 -43,-45 -99,-68 -168,-68 -67,0 -121,23 -164,69 -43,46 -69,114 -78,203 z m 1851,106 v 354 c 0,56 -13,98 -38,126 -25,28 -59,42 -100,42 -40,0 -73,-14 -98,-42 -25,-28 -38,-70 -38,-126 v -424 c 0,-67 -2,-119 -7,-156 -4,-37 -17,-68 -37,-91 -20,-24 -52,-36 -96,-36 -87,0 -145,30 -172,90 -28,60 -42,146 -42,257 v 360 c 0,55 -13,97 -38,126 -25,28 -58,42 -99,42 -40,0 -73,-14 -99,-42 -26,-28 -39,-70 -39,-126 v -762 c 0,-50 12,-88 35,-114 23,-26 53,-39 91,-39 37,0 67,12 91,37 24,24 37,58 37,101 v 25 c 46,-55 96,-96 148,-122 53,-26 111,-39 175,-39 67,0 125,13 173,40 48,27 88,67 119,121 45,-55 93,-95 145,-121 51,-26 108,-40 171,-40 73,0 136,14 188,43 53,29 92,70 118,123 23,48 34,124 34,227 v 520 c 0,56 -13,98 -38,126 -25,28 -59,42 -100,42 -40,0 -73,-14 -99,-42 -26,-28 -39,-70 -39,-126 v -448 c 0,-57 -2,-103 -7,-138 -5,-34 -18,-63 -40,-87 -21,-23 -54,-35 -98,-35 -35,0 -69,10 -100,31 -31,21 -56,49 -74,84 -20,45 -29,124 -29,238 z m 1642,-795 v 395 c 34,-39 67,-70 99,-93 32,-23 68,-40 107,-51 39,-11 81,-17 126,-17 68,0 128,14 180,43 52,29 93,70 123,125 19,32 32,67 38,107 6,39 10,85 10,136 v 510 c 0,53 -12,94 -37,121 -24,27 -57,41 -97,41 -88,0 -132,-54 -132,-162 v -450 c 0,-85 -13,-151 -38,-196 -25,-46 -74,-69 -145,-69 -47,0 -90,14 -128,41 -38,27 -67,64 -85,111 -14,40 -22,110 -22,212 v 352 c 0,53 -12,93 -36,120 -24,28 -57,42 -99,42 -88,0 -132,-54 -132,-162 v -1155 c 0,-54 12,-94 35,-121 23,-27 55,-41 97,-41 42,0 75,14 99,41 24,27 36,68 36,121 z m 1620,1167 c -65,50 -127,87 -187,112 -60,25 -128,37 -202,37 -68,0 -129,-14 -180,-41 -52,-27 -92,-63 -120,-110 -28,-46 -42,-96 -42,-150 0,-73 23,-135 69,-186 46,-52 110,-86 191,-104 17,-4 59,-13 126,-26 67,-14 125,-26 172,-38 48,-11 100,-25 156,-41 -3,-70 -17,-122 -42,-155 -25,-33 -77,-49 -156,-49 -68,0 -119,9 -153,28 -34,19 -64,47 -88,85 -24,38 -42,62 -52,75 -10,12 -32,18 -65,18 -30,0 -56,-10 -78,-29 -22,-19 -33,-44 -33,-74 0,-47 17,-93 50,-137 33,-44 85,-81 155,-109 70,-29 158,-43 263,-43 117,0 209,14 276,42 67,28 114,71 142,131 28,60 42,139 42,238 0,63 0,116 -1,159 0,44 -1,92 -1,146 0,50 8,102 25,157 17,54 25,89 25,105 0,27 -13,52 -38,75 -26,22 -55,34 -88,34 -27,0 -54,-13 -81,-38 -27,-26 -55,-63 -85,-111 z m -18,-386 c -39,14 -96,30 -170,45 -74,16 -126,28 -155,35 -29,8 -56,22 -82,44 -26,22 -39,52 -39,92 0,40 15,75 46,103 30,28 70,43 120,43 53,0 101,-12 146,-35 45,-23 77,-53 98,-90 24,-40 36,-107 36,-199 z m 9039,-2732 h -1570 l -679,-1765 h -436 v 1765 H 50367 V 8263 h 2410 c 532,0 945,125 1239,374 294,249 441,578 441,986 0,266 -54,502 -163,706 -108,204 -328,384 -659,540 l 835,2010 z m -2685,-2747 h 606 c 178,0 321,-37 429,-112 108,-75 163,-185 163,-330 0,-296 -181,-444 -544,-444 h -653 v 886 z m -8544,1073 v 1675 H 41803 V 8264 h 1970 c 491,0 865,56 1121,170 255,113 458,285 608,518 150,232 225,492 225,781 0,441 -153,796 -459,1067 -306,271 -714,406 -1225,406 h -800 z m -21,-990 h 471 c 415,0 623,-156 623,-467 0,-293 -191,-439 -575,-439 h -518 v 906 z M 41001,8264 v 4616 H 39686 V 9579 l -859,3301 h -898 l -886,-3301 v 3301 H 35984 V 8264 h 1846 l 669,2452 639,-2452 z m -7804,4685 c -649,0 -1179,-216 -1588,-646 -409,-430 -614,-1006 -614,-1726 0,-689 196,-1258 587,-1708 391,-449 934,-674 1628,-674 642,0 1167,212 1572,635 405,423 607,988 607,1695 0,732 -204,1319 -612,1761 -408,442 -934,662 -1580,662 z m -6,-1045 c 240,0 413,-105 518,-314 105,-209 158,-591 158,-1145 0,-804 -217,-1205 -649,-1205 -467,0 -700,458 -700,1375 0,859 225,1289 674,1289 z m -3805,-782 1294,77 c -61,564 -270,996 -626,1297 -356,301 -795,452 -1315,452 -626,0 -1131,-208 -1515,-622 -385,-414 -578,-987 -578,-1716 0,-723 182,-1307 547,-1751 364,-444 873,-665 1526,-665 610,0 1080,168 1407,505 326,337 512,784 555,1340 l -1322,71 c 0,-308 -59,-529 -176,-667 -118,-137 -257,-205 -416,-205 -444,0 -667,449 -667,1347 0,503 58,845 173,1025 116,181 279,271 488,271 373,0 581,-254 626,-761 z m -4257,1758 -885,-3251 -898,3251 h -1149 l 1428,-4616 h 1497 l 1452,4616 z m 23418,0 -885,-3251 -898,3251 h -1149 l 1428,-4616 h 1497 l 1452,4616 z M 11478,9805 c 393,1229 2139,-2924 2127,-4948 -1,-95 -81,-126 -105,-71 -1401,3185 -2229,662 -2514,70 -65,-135 -150,-139 -159,17 -49,843 646,4913 651,4932 z m 812,-4840 c 279,0 505,214 505,478 0,264 -226,478 -505,478 -279,0 -505,-214 -505,-478 0,-264 226,-478 505,-478 z M 9066,4848 c 461,718 1768,3462 1924,4620 156,1158 -6164,-4515 -4272,-3517 3457,2677 1888,-1821 2349,-1103 z m -1190,729 c -247,123 -341,410 -210,641 131,231 437,320 683,197 247,-123 341,-410 210,-641 -131,-231 -437,-320 -683,-197 z m 7284,-711 c -479,708 -2035,4557 -2040,4576 -546,2318 5869,-4535 4360,-3421 -3523,2600 -1842,-1863 -2320,-1155 z m 1171,755 c 244,128 330,417 194,646 -136,229 -445,310 -688,182 -244,-128 -330,-417 -194,-646 136,-229 445,-310 688,-182 z m -1877,6525 c 447,-324 1055,-978 1413,-1602 358,-623 781,-1553 1235,-1377 328,128 -1118,3390 -2648,2979 z m -1279,-437 c 290,-161 830,-450 1350,-1168 520,-718 855,-953 1007,-853 543,356 -1257,2643 -2357,2022 z m -3683,1155 c 1418,1373 3515,1936 5460,1303 1671,-544 2851,-1743 3549,-3366 698,-1623 683,-4273 999,-4302 710,295 1539,5802 -2450,9277 -3989,3476 -9177,2598 -12190,-980 -915,-1087 -424,-2093 358,-2807 528,-482 1206,-845 1637,-1012 419,-164 787,-258 1147,-316 3840,-618 4454,2717 8514,1894 -2568,1878 -4951,955 -7025,309 z"
       id="path9"
       inkscape:connector-curvature="0"
       style="fill:#010101;opacity:1" /></g></svg>