<?xml version="1.0" encoding="UTF-8"?>
<!DOCTYPE svg PUBLIC "-//W3C//DTD SVG 1.1//EN" "http://www.w3.org/Graphics/SVG/1.1/DTD/svg11.dtd">
<!-- Creator: CorelDRAW X6 -->
<svg xmlns="http://www.w3.org/2000/svg" xml:space="preserve" width="458.522mm" height="417.629mm" version="1.1" style="shape-rendering:geometricPrecision; text-rendering:geometricPrecision; image-rendering:optimizeQuality; fill-rule:evenodd; clip-rule:evenodd"
viewBox="0 0 48210 43911"
 xmlns:xlink="http://www.w3.org/1999/xlink">
 <defs>
  <style type="text/css">
   <![CDATA[
    .fil0 {fill:none}
    .fil9 {fill:url(#id0)}
    .fil6 {fill:url(#id1)}
    .fil5 {fill:url(#id2)}
    .fil13 {fill:url(#id3)}
    .fil12 {fill:url(#id4)}
    .fil3 {fill:url(#id5)}
    .fil1 {fill:url(#id6)}
    .fil2 {fill:url(#id7);fill-rule:nonzero}
    .fil4 {fill:url(#id8);fill-rule:nonzero}
    .fil11 {fill:url(#id9);fill-rule:nonzero}
    .fil14 {fill:url(#id10);fill-rule:nonzero}
    .fil10 {fill:url(#id11);fill-rule:nonzero}
    .fil7 {fill:url(#id12);fill-rule:nonzero}
    .fil8 {fill:url(#id13);fill-rule:nonzero}
   ]]>
  </style>
  <linearGradient id="id0" gradientUnits="userSpaceOnUse" x1="24593.7" y1="35635.8" x2="24504.8" y2="30241.3">
   <stop offset="0" style="stop-color:#F2665D"/>
   <stop offset="1" style="stop-color:#F78D86"/>
  </linearGradient>
  <linearGradient id="id1" gradientUnits="userSpaceOnUse" x1="7847.89" y1="30339.6" x2="8847.04" y2="35537.5">
   <stop offset="0" style="stop-color:#3495CF"/>
   <stop offset="1" style="stop-color:#5CBBF2"/>
  </linearGradient>
  <linearGradient id="id2" gradientUnits="userSpaceOnUse" xlink:href="#id1" x1="34743.8" y1="30339.6" x2="35743" y2="35537.5">
  </linearGradient>
  <linearGradient id="id3" gradientUnits="userSpaceOnUse" xlink:href="#id1" x1="37095.8" y1="35135.2" x2="35329" y2="30741.9">
  </linearGradient>
  <linearGradient id="id4" gradientUnits="userSpaceOnUse" xlink:href="#id1" x1="10199.8" y1="35135.2" x2="8433.08" y2="30741.9">
  </linearGradient>
  <radialGradient id="id5" gradientUnits="userSpaceOnUse" cx="17618.4" cy="10454.5" r="3895.22" fx="17618.4" fy="10454.5">
   <stop offset="0" style="stop-color:#F78D86"/>
   <stop offset="1" style="stop-color:#F2665D"/>
  </radialGradient>
  <radialGradient id="id6" gradientUnits="userSpaceOnUse" cx="25178.1" cy="19857.8" r="3061.29" fx="25178.1" fy="19857.8">
   <stop offset="0" style="stop-color:#5CBBF2"/>
   <stop offset="1" style="stop-color:#3495CF"/>
  </radialGradient>
  <radialGradient id="id7" gradientUnits="userSpaceOnUse" cx="29812.7" cy="11340.8" r="4119.79" fx="29812.7" fy="11340.8">
   <stop offset="0" style="stop-color:#5CE0E0"/>
   <stop offset="1" style="stop-color:#34C0BF"/>
  </radialGradient>
  <radialGradient id="id8" gradientUnits="userSpaceOnUse" cx="24111.3" cy="11520.2" r="615.314" fx="24111.3" fy="11520.2">
   <stop offset="0" style="stop-color:#FFC294"/>
   <stop offset="1" style="stop-color:#F89A50"/>
  </radialGradient>
  <radialGradient id="id9" gradientUnits="userSpaceOnUse" xlink:href="#id7" cx="40543.8" cy="32938.5" r="651.946" fx="40543.8" fy="32938.5">
  </radialGradient>
  <radialGradient id="id10" gradientUnits="userSpaceOnUse" xlink:href="#id7" cx="24105" cy="38528.3" r="6229.99" fx="24105" fy="38528.3">
  </radialGradient>
  <radialGradient id="id11" gradientUnits="userSpaceOnUse" xlink:href="#id8" cx="30604" cy="32938.5" r="651.946" fx="30604" fy="32938.5">
  </radialGradient>
  <radialGradient id="id12" gradientUnits="userSpaceOnUse" cx="13259.7" cy="32938.5" r="483.476" fx="13259.7" fy="32938.5">
   <stop offset="0" style="stop-color:#BCA8ED"/>
   <stop offset="1" style="stop-color:#826EB2"/>
  </radialGradient>
  <radialGradient id="id13" gradientUnits="userSpaceOnUse" cx="18461.4" cy="32938.5" r="470.039" fx="18461.4" fy="32938.5">
   <stop offset="0" style="stop-color:#E693C9"/>
   <stop offset="1" style="stop-color:#D558A9"/>
  </radialGradient>
 </defs>
 <g id="Camada_x0020_1">
  <metadata id="CorelCorpID_0Corel-Layer"/>
  <g id="_879652752">
   <polygon class="fil0" points="0,0 48210,0 48210,43911 0,43911 "/>
   <path class="fil1" d="M30101 17664c380,-394 1752,-1792 2154,-3289 402,-1497 999,-3495 1669,-3229 536,213 110,6347 -3823,6517zm-2324 -203c717,-520 1693,-1570 2267,-2570 574,-1000 1254,-2492 1982,-2209 527,205 -1793,5439 -4249,4779zm-2052 -701c465,-259 1331,-722 2166,-1875 835,-1153 1372,-1529 1616,-1369 871,572 -2017,4240 -3782,3244zm-5910 1853c2275,2202 5640,3107 8761,2091 2682,-873 4574,-2797 5694,-5401 1120,-2604 1096,-6856 1603,-6903 1139,473 2469,9309 -3931,14886 -6401,5577 -14726,4168 -19559,-1573 -1468,-1744 -680,-3359 575,-4503 848,-773 1935,-1355 2627,-1624 672,-264 1264,-413 1840,-506 6161,-992 7146,4360 13662,3039 -4121,3013 -7944,1533 -11273,496z"/>
   <path class="fil2" d="M28910 5779c-768,1136 -3266,7312 -3273,7342 -876,3720 9418,-7277 6996,-5489 -5654,4172 -2955,-2989 -3723,-1853zm1880 1211c391,205 530,669 311,1036 -219,367 -713,497 -1104,292 -391,-205 -530,-669 -311,-1036 219,-367 713,-497 1104,-292z"/>
   <path class="fil3" d="M19132 5751c739,1153 2836,5554 3087,7412 251,1858 -9890,-7245 -6855,-5643 5547,4296 3029,-2922 3768,-1770zm-1910 1169c-396,197 -547,657 -337,1029 210,371 701,513 1096,316 396,-197 547,-657 337,-1029 -210,-371 -701,-513 -1096,-316z"/>
   <path class="fil4" d="M23003 13704c631,1972 3432,-4692 3413,-7939 -1,-153 -130,-202 -169,-114 -2247,5111 -3576,1061 -4035,112 -104,-216 -241,-223 -255,28 -78,1353 1036,7883 1045,7913zm1302 -7765c448,0 811,343 811,766 0,423 -363,766 -811,766 -448,0 -811,-343 -811,-766 0,-423 363,-766 811,-766z"/>
   <polygon class="fil5" points="36097,35589 35081,31855 34049,35589 32730,35589 34370,30288 36089,30288 37757,35589 "/>
   <polygon class="fil6" points="9201,35589 8185,31855 7153,35589 5834,35589 7474,30288 9193,30288 10861,35589 "/>
   <path class="fil7" d="M14090 33570l1486 89c-70,648 -310,1144 -719,1490 -409,346 -913,519 -1510,519 -719,0 -1299,-238 -1741,-714 -442,-476 -664,-1134 -664,-1971 0,-831 209,-1501 628,-2011 419,-510 1003,-764 1752,-764 701,0 1240,193 1616,580 375,387 588,901 637,1539l-1518 82c0,-354 -68,-608 -203,-766 -135,-158 -295,-236 -478,-236 -510,0 -766,515 -766,1547 0,578 66,971 199,1178 134,208 321,311 560,311 428,0 668,-291 719,-874z"/>
   <path class="fil8" d="M18467 35669c-746,0 -1354,-248 -1824,-742 -470,-494 -705,-1155 -705,-1983 0,-791 225,-1445 674,-1962 449,-515 1073,-774 1870,-774 738,0 1340,244 1805,730 465,486 697,1135 697,1947 0,841 -234,1515 -703,2023 -469,507 -1073,760 -1815,760zm-7 -1200c276,0 474,-121 595,-360 121,-240 181,-678 181,-1315 0,-923 -249,-1384 -746,-1384 -536,0 -804,526 -804,1579 0,987 258,1481 774,1481z"/>
   <polygon class="fil9" points="27430,30288 27430,35589 25920,35589 25920,31798 24933,35589 23902,35589 22884,31798 22884,35589 21668,35589 21668,30288 23789,30288 24557,33104 25291,30288 "/>
   <path class="fil10" d="M30004 33666l0 1923 -1653 0 0 -5301 2262 0c564,0 993,65 1288,195 293,130 526,327 698,595 172,266 258,566 258,897 0,506 -176,914 -527,1225 -351,311 -820,466 -1407,466l-919 0zm-24 -1136l540 0c477,0 715,-179 715,-536 0,-336 -220,-505 -661,-505l-595 0 0 1041z"/>
   <path class="fil11" d="M42900 35589l-1803 0 -780 -2027 -501 0 0 2027 -1629 0 0 -5301 2768 0c611,0 1085,143 1423,429 338,286 506,664 506,1133 0,306 -62,576 -187,811 -125,234 -376,441 -756,620l959 2309zm-3084 -3155l695 0c204,0 368,-42 493,-128 125,-86 187,-212 187,-379 0,-340 -208,-510 -625,-510l-750 0 0 1017z"/>
   <polygon class="fil12" points="9193,30288 10861,35589 9201,35589 7772,30314 "/>
   <polygon class="fil13" points="36089,30288 37757,35589 36097,35589 34668,30314 "/>
   <path class="fil14" d="M7824 37874l385 1141 387 -1149c20,-61 35,-103 45,-126 10,-24 27,-45 50,-64 23,-19 55,-29 95,-29 29,0 57,8 82,22 25,15 45,34 59,59 14,24 21,49 21,74 0,17 -2,35 -7,55 -4,19 -10,39 -17,58 -7,19 -14,38 -21,59l-412 1113c-15,42 -30,83 -44,121 -15,38 -32,72 -51,101 -19,29 -45,53 -77,71 -32,19 -71,28 -118,28 -47,0 -86,-9 -118,-27 -32,-18 -58,-42 -78,-72 -19,-30 -37,-64 -52,-102 -15,-38 -29,-78 -44,-121l-405 -1103c-7,-20 -14,-40 -21,-59 -8,-19 -13,-40 -19,-63 -5,-23 -8,-42 -8,-57 0,-39 16,-75 48,-108 32,-33 72,-49 120,-49 59,0 100,18 124,54 25,36 50,94 75,172zm25430 1076l0 265c0,64 -15,112 -45,144 -30,32 -68,48 -115,48 -46,0 -83,-16 -113,-49 -29,-33 -44,-80 -44,-144l0 -883c0,-142 52,-214 154,-214 52,0 90,17 113,50 23,33 36,83 38,148 38,-65 77,-115 117,-148 40,-33 93,-50 160,-50 67,0 131,17 194,50 63,33 94,78 94,133 0,39 -13,71 -40,96 -27,25 -55,38 -86,38 -11,0 -40,-7 -84,-21 -45,-14 -84,-21 -118,-21 -46,0 -84,12 -114,36 -29,25 -52,61 -69,109 -16,48 -27,105 -34,171 -6,66 -9,147 -9,242zm1782 -164l0 421c0,67 -15,117 -45,150 -30,33 -70,50 -119,50 -48,0 -87,-17 -117,-50 -30,-33 -45,-83 -45,-150l0 -505c0,-80 -3,-142 -8,-186 -5,-44 -20,-80 -44,-109 -24,-28 -62,-42 -114,-42 -104,0 -172,36 -205,107 -33,71 -50,173 -50,306l0 429c0,66 -15,116 -45,149 -30,34 -69,50 -117,50 -48,0 -87,-17 -118,-50 -31,-34 -46,-84 -46,-149l0 -907c0,-59 14,-105 41,-136 27,-31 63,-46 108,-46 44,0 80,15 109,44 29,29 44,69 44,120l0 30c55,-66 114,-114 176,-145 63,-31 132,-46 209,-46 80,0 148,16 206,48 57,32 105,80 142,144 54,-65 111,-113 172,-144 61,-31 129,-47 203,-47 87,0 161,17 224,51 63,34 110,83 141,146 27,57 40,147 40,270l0 619c0,67 -15,117 -45,150 -30,33 -70,50 -119,50 -48,0 -87,-17 -118,-50 -31,-34 -46,-84 -46,-149l0 -533c0,-68 -3,-123 -9,-164 -6,-41 -21,-75 -47,-103 -25,-28 -64,-42 -116,-42 -42,0 -82,12 -119,37 -37,25 -67,58 -88,100 -23,53 -35,148 -35,283zm2238 -23c0,95 -15,182 -44,261 -30,80 -72,148 -128,205 -56,57 -123,101 -200,132 -77,31 -165,46 -261,46 -96,0 -183,-15 -259,-46 -77,-31 -143,-75 -199,-133 -56,-57 -99,-126 -128,-204 -29,-79 -44,-166 -44,-261 0,-96 15,-184 44,-264 30,-80 72,-148 127,-205 55,-56 122,-100 200,-130 78,-31 165,-46 259,-46 96,0 183,15 261,46 78,31 145,75 201,133 56,57 98,125 127,205 29,79 44,166 44,261zm-319 0c0,-129 -29,-230 -85,-302 -57,-72 -133,-108 -229,-108 -62,0 -117,16 -164,48 -47,32 -84,80 -109,142 -26,63 -38,136 -38,219 0,83 13,155 38,217 25,62 61,109 108,142 47,33 102,49 166,49 96,0 172,-36 229,-109 57,-72 85,-172 85,-300zm856 -470l0 38c56,-74 117,-128 183,-162 66,-34 142,-52 228,-52 84,0 158,18 224,55 66,36 115,88 147,154 21,39 34,80 41,126 6,45 9,102 9,172l0 590c0,63 -15,111 -44,144 -29,33 -67,49 -113,49 -47,0 -86,-17 -115,-50 -29,-33 -44,-81 -44,-143l0 -529c0,-104 -15,-184 -44,-240 -29,-55 -87,-83 -174,-83 -56,0 -108,17 -155,50 -46,34 -80,80 -102,139 -15,47 -23,135 -23,265l0 397c0,64 -15,112 -45,144 -30,32 -68,48 -115,48 -46,0 -83,-17 -113,-50 -29,-33 -44,-81 -44,-143l0 -917c0,-60 13,-105 39,-135 27,-30 62,-45 108,-45 28,0 53,7 75,20 23,13 40,33 54,59 13,27 20,59 20,96zm1466 5l0 917c0,63 -15,111 -45,144 -30,33 -68,49 -115,49 -46,0 -84,-17 -113,-50 -29,-33 -44,-81 -44,-143l0 -907c0,-63 15,-110 44,-142 29,-32 67,-48 113,-48 46,0 84,16 115,48 30,32 45,76 45,132zm-157 -327c-44,0 -82,-13 -113,-40 -31,-27 -47,-65 -47,-115 0,-44 16,-81 48,-110 32,-29 69,-44 112,-44 41,0 77,13 109,39 32,27 48,65 48,115 0,49 -15,87 -46,114 -31,27 -67,41 -110,41zm1286 1259c-77,59 -151,104 -222,134 -72,30 -152,44 -241,44 -81,0 -153,-16 -214,-48 -61,-32 -109,-75 -142,-130 -33,-55 -50,-115 -50,-179 0,-87 27,-161 82,-222 55,-61 131,-102 227,-123 20,-5 70,-15 149,-31 80,-16 148,-31 205,-45 57,-13 119,-30 185,-49 -4,-84 -21,-145 -50,-184 -30,-39 -92,-59 -186,-59 -80,0 -141,11 -182,34 -41,22 -76,56 -105,101 -29,45 -50,74 -61,89 -12,14 -38,21 -77,21 -36,0 -67,-12 -92,-34 -26,-23 -39,-52 -39,-88 0,-56 20,-110 59,-163 40,-53 101,-96 185,-130 84,-34 188,-51 313,-51 139,0 249,17 329,50 80,33 136,85 169,156 33,71 50,166 50,283 0,75 0,138 -1,190 0,52 -1,110 -2,173 0,59 10,122 30,186 20,64 29,106 29,124 0,33 -15,62 -46,89 -31,27 -65,40 -104,40 -33,0 -65,-15 -96,-46 -32,-31 -65,-75 -101,-132zm-21 -460c-46,17 -114,35 -203,54 -88,19 -150,33 -184,42 -34,9 -67,27 -98,52 -31,26 -46,62 -46,109 0,48 18,89 55,123 36,34 84,51 143,51 63,0 121,-14 173,-41 53,-28 92,-63 117,-107 29,-48 43,-127 43,-238l0 -45zm-30516 460c-77,59 -151,104 -222,134 -72,30 -152,44 -241,44 -81,0 -153,-16 -214,-48 -61,-32 -109,-75 -142,-130 -33,-55 -50,-115 -50,-179 0,-87 27,-161 82,-222 55,-61 131,-102 227,-123 20,-5 70,-15 149,-31 80,-16 148,-31 205,-45 57,-13 119,-30 185,-49 -4,-84 -21,-145 -50,-184 -30,-39 -92,-59 -186,-59 -80,0 -141,11 -182,34 -41,22 -76,56 -105,101 -29,45 -50,74 -61,89 -12,14 -38,21 -77,21 -36,0 -67,-12 -92,-34 -26,-23 -39,-52 -39,-88 0,-56 20,-110 59,-163 40,-53 101,-96 185,-130 84,-34 188,-51 313,-51 139,0 249,17 329,50 80,33 136,85 169,156 33,71 50,166 50,283 0,75 0,138 -1,190 0,52 -1,110 -2,173 0,59 10,122 30,186 20,64 29,106 29,124 0,33 -15,62 -46,89 -31,27 -65,40 -104,40 -33,0 -65,-15 -96,-46 -32,-31 -65,-75 -101,-132zm-21 -460c-46,17 -114,35 -203,54 -88,19 -150,33 -184,42 -34,9 -67,27 -98,52 -31,26 -46,62 -46,109 0,48 18,89 55,123 36,34 84,51 143,51 63,0 121,-14 173,-41 53,-28 92,-63 117,-107 29,-48 43,-127 43,-238l0 -45zm633 445l0 -1375c0,-63 14,-111 42,-144 28,-33 66,-49 114,-49 48,0 86,16 116,48 29,32 44,80 44,144l0 1375c0,64 -15,112 -45,144 -30,32 -68,48 -115,48 -46,0 -84,-17 -113,-50 -29,-33 -44,-81 -44,-143zm1832 -452c0,95 -15,182 -44,261 -30,80 -72,148 -128,205 -56,57 -123,101 -200,132 -77,31 -165,46 -261,46 -96,0 -183,-15 -259,-46 -77,-31 -143,-75 -199,-133 -56,-57 -99,-126 -128,-204 -29,-79 -44,-166 -44,-261 0,-96 15,-184 44,-264 30,-80 72,-148 127,-205 55,-56 122,-100 200,-130 78,-31 165,-46 259,-46 96,0 183,15 261,46 78,31 145,75 201,133 56,57 98,125 127,205 29,79 44,166 44,261zm-319 0c0,-129 -29,-230 -85,-302 -57,-72 -133,-108 -229,-108 -62,0 -117,16 -164,48 -47,32 -84,80 -109,142 -26,63 -38,136 -38,219 0,83 13,155 38,217 25,62 61,109 108,142 47,33 102,49 166,49 96,0 172,-36 229,-109 57,-72 85,-172 85,-300zm883 187l0 265c0,64 -15,112 -45,144 -30,32 -68,48 -115,48 -46,0 -83,-16 -113,-49 -29,-33 -44,-80 -44,-144l0 -883c0,-142 52,-214 154,-214 52,0 90,17 113,50 23,33 36,83 38,148 38,-65 77,-115 117,-148 40,-33 93,-50 160,-50 67,0 131,17 194,50 63,33 94,78 94,133 0,39 -13,71 -40,96 -27,25 -55,38 -86,38 -11,0 -40,-7 -84,-21 -45,-14 -84,-21 -118,-21 -46,0 -84,12 -114,36 -29,25 -52,61 -69,109 -16,48 -27,105 -34,171 -6,66 -9,147 -9,242zm1044 -652l0 917c0,63 -15,111 -45,144 -30,33 -68,49 -115,49 -46,0 -84,-17 -113,-50 -29,-33 -44,-81 -44,-143l0 -907c0,-63 15,-110 44,-142 29,-32 67,-48 113,-48 46,0 84,16 115,48 30,32 45,76 45,132zm-157 -327c-44,0 -82,-13 -113,-40 -31,-27 -47,-65 -47,-115 0,-44 16,-81 48,-110 32,-29 69,-44 112,-44 41,0 77,13 109,39 32,27 48,65 48,115 0,49 -15,87 -46,114 -31,27 -67,41 -110,41zm1346 511l-581 649 621 0c50,0 88,12 114,35 26,24 38,54 38,91 0,36 -13,65 -38,87 -25,23 -63,34 -115,34l-860 0c-60,0 -105,-13 -135,-40 -30,-26 -45,-62 -45,-108 0,-27 10,-54 31,-82 21,-27 64,-78 130,-151 70,-77 133,-147 190,-211 57,-63 110,-121 159,-176 49,-54 89,-101 121,-139 32,-38 58,-71 77,-98l-471 0c-65,0 -114,-6 -148,-17 -33,-12 -50,-42 -50,-92 0,-36 12,-65 38,-87 25,-22 61,-33 107,-33l728 0c67,0 119,10 155,30 36,19 54,55 54,106 0,17 -4,35 -10,53 -7,18 -15,33 -23,45 -8,11 -20,26 -35,42 -15,17 -33,36 -54,60zm1180 747c-77,59 -151,104 -222,134 -72,30 -152,44 -241,44 -81,0 -153,-16 -214,-48 -61,-32 -109,-75 -142,-130 -33,-55 -50,-115 -50,-179 0,-87 27,-161 82,-222 55,-61 131,-102 227,-123 20,-5 70,-15 149,-31 80,-16 148,-31 205,-45 57,-13 119,-30 185,-49 -4,-84 -21,-145 -50,-184 -30,-39 -92,-59 -186,-59 -80,0 -141,11 -182,34 -41,22 -76,56 -105,101 -29,45 -50,74 -61,89 -12,14 -38,21 -77,21 -36,0 -67,-12 -92,-34 -26,-23 -39,-52 -39,-88 0,-56 20,-110 59,-163 40,-53 101,-96 185,-130 84,-34 188,-51 313,-51 139,0 249,17 329,50 80,33 136,85 169,156 33,71 50,166 50,283 0,75 0,138 -1,190 0,52 -1,110 -2,173 0,59 10,122 30,186 20,64 29,106 29,124 0,33 -15,62 -46,89 -31,27 -65,40 -104,40 -33,0 -65,-15 -96,-46 -32,-31 -65,-75 -101,-132zm-21 -460c-46,17 -114,35 -203,54 -88,19 -150,33 -184,42 -34,9 -67,27 -98,52 -31,26 -46,62 -46,109 0,48 18,89 55,123 36,34 84,51 143,51 63,0 121,-14 173,-41 53,-28 92,-63 117,-107 29,-48 43,-127 43,-238l0 -45zm947 180l0 265c0,64 -15,112 -45,144 -30,32 -68,48 -115,48 -46,0 -83,-16 -113,-49 -29,-33 -44,-80 -44,-144l0 -883c0,-142 52,-214 154,-214 52,0 90,17 113,50 23,33 36,83 38,148 38,-65 77,-115 117,-148 40,-33 93,-50 160,-50 67,0 131,17 194,50 63,33 94,78 94,133 0,39 -13,71 -40,96 -27,25 -55,38 -86,38 -11,0 -40,-7 -84,-21 -45,-14 -84,-21 -118,-21 -46,0 -84,12 -114,36 -29,25 -52,61 -69,109 -16,48 -27,105 -34,171 -6,66 -9,147 -9,242zm2124 280c-77,59 -151,104 -222,134 -72,30 -152,44 -241,44 -81,0 -153,-16 -214,-48 -61,-32 -109,-75 -142,-130 -33,-55 -50,-115 -50,-179 0,-87 27,-161 82,-222 55,-61 131,-102 227,-123 20,-5 70,-15 149,-31 80,-16 148,-31 205,-45 57,-13 119,-30 185,-49 -4,-84 -21,-145 -50,-184 -30,-39 -92,-59 -186,-59 -80,0 -141,11 -182,34 -41,22 -76,56 -105,101 -29,45 -50,74 -61,89 -12,14 -38,21 -77,21 -36,0 -67,-12 -92,-34 -26,-23 -39,-52 -39,-88 0,-56 20,-110 59,-163 40,-53 101,-96 185,-130 84,-34 188,-51 313,-51 139,0 249,17 329,50 80,33 136,85 169,156 33,71 50,166 50,283 0,75 0,138 -1,190 0,52 -1,110 -2,173 0,59 10,122 30,186 20,64 29,106 29,124 0,33 -15,62 -46,89 -31,27 -65,40 -104,40 -33,0 -65,-15 -96,-46 -32,-31 -65,-75 -101,-132zm-21 -460c-46,17 -114,35 -203,54 -88,19 -150,33 -184,42 -34,9 -67,27 -98,52 -31,26 -46,62 -46,109 0,48 18,89 55,123 36,34 84,51 143,51 63,0 121,-14 173,-41 53,-28 92,-63 117,-107 29,-48 43,-127 43,-238l0 -45zm1452 -454l257 721 276 -752c22,-60 43,-103 64,-128 21,-25 53,-38 95,-38 40,0 75,13 103,41 28,27 42,58 42,94 0,14 -2,30 -8,49 -5,19 -11,36 -17,52 -7,16 -14,35 -23,55l-304 755c-9,21 -19,49 -33,82 -13,33 -29,61 -45,85 -17,24 -37,42 -61,55 -25,13 -54,20 -89,20 -45,0 -80,-10 -107,-31 -27,-20 -46,-43 -59,-67 -13,-24 -34,-73 -65,-144l-302 -747c-7,-19 -14,-37 -21,-56 -8,-19 -13,-37 -19,-57 -5,-19 -8,-36 -8,-50 0,-22 7,-43 20,-65 13,-21 31,-39 54,-52 23,-13 48,-20 76,-20 52,0 89,15 109,45 19,31 41,81 65,152zm1382 -17l0 917c0,63 -15,111 -45,144 -30,33 -68,49 -115,49 -46,0 -84,-17 -113,-50 -29,-33 -44,-81 -44,-143l0 -907c0,-63 15,-110 44,-142 29,-32 67,-48 113,-48 46,0 84,16 115,48 30,32 45,76 45,132zm-157 -327c-44,0 -82,-13 -113,-40 -31,-27 -47,-65 -47,-115 0,-44 16,-81 48,-110 32,-29 69,-44 112,-44 41,0 77,13 109,39 32,27 48,65 48,115 0,49 -15,87 -46,114 -31,27 -67,41 -110,41zm1353 1256l0 -31c-42,49 -84,88 -126,119 -41,31 -86,54 -135,70 -48,16 -101,24 -159,24 -76,0 -146,-16 -211,-48 -65,-32 -121,-78 -168,-138 -47,-59 -83,-130 -107,-210 -24,-80 -37,-168 -37,-261 0,-198 48,-353 145,-463 97,-111 224,-166 382,-166 92,0 169,16 231,47 63,31 124,80 184,145l0 -468c0,-65 13,-114 39,-148 26,-33 63,-50 111,-50 48,0 85,15 111,46 26,31 39,76 39,135l0 1398c0,60 -14,106 -42,136 -28,30 -64,45 -108,45 -43,0 -79,-16 -107,-47 -28,-31 -42,-76 -42,-134zm-623 -465c0,86 13,159 40,220 27,60 63,105 110,136 46,31 97,46 152,46 56,0 107,-15 153,-44 46,-29 83,-73 110,-133 27,-60 41,-135 41,-225 0,-84 -14,-157 -41,-217 -27,-61 -65,-107 -111,-140 -47,-32 -98,-48 -154,-48 -58,0 -110,16 -155,49 -46,33 -81,80 -106,142 -25,62 -38,133 -38,214zm2043 469c-77,59 -151,104 -222,134 -72,30 -152,44 -241,44 -81,0 -153,-16 -214,-48 -61,-32 -109,-75 -142,-130 -33,-55 -50,-115 -50,-179 0,-87 27,-161 82,-222 55,-61 131,-102 227,-123 20,-5 70,-15 149,-31 80,-16 148,-31 205,-45 57,-13 119,-30 185,-49 -4,-84 -21,-145 -50,-184 -30,-39 -92,-59 -186,-59 -80,0 -141,11 -182,34 -41,22 -76,56 -105,101 -29,45 -50,74 -61,89 -12,14 -38,21 -77,21 -36,0 -67,-12 -92,-34 -26,-23 -39,-52 -39,-88 0,-56 20,-110 59,-163 40,-53 101,-96 185,-130 84,-34 188,-51 313,-51 139,0 249,17 329,50 80,33 136,85 169,156 33,71 50,166 50,283 0,75 0,138 -1,190 0,52 -1,110 -2,173 0,59 10,122 30,186 20,64 29,106 29,124 0,33 -15,62 -46,89 -31,27 -65,40 -104,40 -33,0 -65,-15 -96,-46 -32,-31 -65,-75 -101,-132zm-21 -460c-46,17 -114,35 -203,54 -88,19 -150,33 -184,42 -34,9 -67,27 -98,52 -31,26 -46,62 -46,109 0,48 18,89 55,123 36,34 84,51 143,51 63,0 121,-14 173,-41 53,-28 92,-63 117,-107 29,-48 43,-127 43,-238l0 -45zm2112 71l-620 0c1,72 15,136 44,191 28,55 66,96 113,124 47,28 99,42 155,42 38,0 73,-4 104,-13 32,-9 62,-23 91,-42 30,-19 57,-39 81,-61 25,-22 57,-51 97,-88 16,-14 39,-21 69,-21 33,0 59,9 79,27 20,17 30,43 30,75 0,29 -11,62 -34,100 -23,38 -56,75 -102,110 -45,35 -102,65 -170,88 -69,23 -147,35 -236,35 -204,0 -362,-58 -475,-174 -113,-116 -169,-274 -169,-473 0,-94 14,-181 42,-261 28,-80 69,-149 122,-206 54,-57 119,-101 197,-132 78,-31 165,-46 260,-46 124,0 230,26 319,79 89,52 155,120 199,203 44,83 66,167 66,253 0,80 -23,132 -69,155 -46,23 -110,35 -193,35zm-620 -181l575 0c-8,-108 -37,-189 -88,-243 -51,-54 -117,-80 -200,-80 -79,0 -144,27 -195,82 -51,55 -82,135 -92,242zm2203 126l0 421c0,67 -15,117 -45,150 -30,33 -70,50 -119,50 -48,0 -87,-17 -117,-50 -30,-33 -45,-83 -45,-150l0 -505c0,-80 -3,-142 -8,-186 -5,-44 -20,-80 -44,-109 -24,-28 -62,-42 -114,-42 -104,0 -172,36 -205,107 -33,71 -50,173 -50,306l0 429c0,66 -15,116 -45,149 -30,34 -69,50 -117,50 -48,0 -87,-17 -118,-50 -31,-34 -46,-84 -46,-149l0 -907c0,-59 14,-105 41,-136 27,-31 63,-46 108,-46 44,0 80,15 109,44 29,29 44,69 44,120l0 30c55,-66 114,-114 176,-145 63,-31 132,-46 209,-46 80,0 148,16 206,48 57,32 105,80 142,144 54,-65 111,-113 172,-144 61,-31 129,-47 203,-47 87,0 161,17 224,51 63,34 110,83 141,146 27,57 40,147 40,270l0 619c0,67 -15,117 -45,150 -30,33 -70,50 -119,50 -48,0 -87,-17 -118,-50 -31,-34 -46,-84 -46,-149l0 -533c0,-68 -3,-123 -9,-164 -6,-41 -21,-75 -47,-103 -25,-28 -64,-42 -116,-42 -42,0 -82,12 -119,37 -37,25 -67,58 -88,100 -23,53 -35,148 -35,283zm1955 -946l0 470c40,-46 80,-83 118,-110 38,-27 80,-48 127,-61 47,-13 97,-20 150,-20 80,0 152,17 214,51 62,34 111,84 147,149 23,38 38,80 46,127 8,47 11,101 11,162l0 608c0,63 -15,111 -44,144 -29,33 -68,49 -116,49 -105,0 -157,-64 -157,-193l0 -536c0,-102 -15,-180 -45,-234 -30,-55 -88,-82 -172,-82 -56,0 -107,16 -153,48 -45,32 -79,76 -101,132 -17,47 -26,131 -26,252l0 419c0,63 -14,110 -42,143 -28,33 -67,50 -117,50 -104,0 -157,-64 -157,-193l0 -1375c0,-64 14,-112 41,-144 27,-32 66,-48 115,-48 50,0 89,16 117,49 28,33 42,80 42,144zm1929 1390c-77,59 -151,104 -222,134 -72,30 -152,44 -241,44 -81,0 -153,-16 -214,-48 -61,-32 -109,-75 -142,-130 -33,-55 -50,-115 -50,-179 0,-87 27,-161 82,-222 55,-61 131,-102 227,-123 20,-5 70,-15 149,-31 80,-16 148,-31 205,-45 57,-13 119,-30 185,-49 -4,-84 -21,-145 -50,-184 -30,-39 -92,-59 -186,-59 -80,0 -141,11 -182,34 -41,22 -76,56 -105,101 -29,45 -50,74 -61,89 -12,14 -38,21 -77,21 -36,0 -67,-12 -92,-34 -26,-23 -39,-52 -39,-88 0,-56 20,-110 59,-163 40,-53 101,-96 185,-130 84,-34 188,-51 313,-51 139,0 249,17 329,50 80,33 136,85 169,156 33,71 50,166 50,283 0,75 0,138 -1,190 0,52 -1,110 -2,173 0,59 10,122 30,186 20,64 29,106 29,124 0,33 -15,62 -46,89 -31,27 -65,40 -104,40 -33,0 -65,-15 -96,-46 -32,-31 -65,-75 -101,-132zm-21 -460c-46,17 -114,35 -203,54 -88,19 -150,33 -184,42 -34,9 -67,27 -98,52 -31,26 -46,62 -46,109 0,48 18,89 55,123 36,34 84,51 143,51 63,0 121,-14 173,-41 53,-28 92,-63 117,-107 29,-48 43,-127 43,-238l0 -45z"/>
  </g>
 </g>
</svg>
